<?xml version="1.0" encoding="UTF-8" standalone="no"?>
<svg
   version="1.1"
   width="364"
   height="400"
   id="svg16"
   sodipodi:docname="documentos.svg"
   inkscape:version="1.4-rc1 (61ec3f2, 2024-09-26)"
   xmlns:inkscape="http://www.inkscape.org/namespaces/inkscape"
   xmlns:sodipodi="http://sodipodi.sourceforge.net/DTD/sodipodi-0.dtd"
   xmlns="http://www.w3.org/2000/svg"
   xmlns:svg="http://www.w3.org/2000/svg">
  <defs
     id="defs16" />
  <sodipodi:namedview
     id="namedview16"
     pagecolor="#505050"
     bordercolor="#ffffff"
     borderopacity="1"
     inkscape:showpageshadow="0"
     inkscape:pageopacity="0"
     inkscape:pagecheckerboard="1"
     inkscape:deskcolor="#505050"
     inkscape:zoom="2.055"
     inkscape:cx="204.62287"
     inkscape:cy="150.85158"
     inkscape:window-width="1920"
     inkscape:window-height="1017"
     inkscape:window-x="-8"
     inkscape:window-y="-8"
     inkscape:window-maximized="1"
     inkscape:current-layer="svg16" />
  <path
     d="M0 0 C0.72308649 -0.00226556 1.44617297 -0.00453111 2.19117117 -0.00686532 C4.62636482 -0.01322107 7.06150305 -0.01237496 9.4967041 -0.0115509 C11.237575 -0.01454138 12.97844523 -0.01794364 14.71931458 -0.02172852 C19.45678618 -0.03058316 24.19423974 -0.03290722 28.93171883 -0.0335443 C32.88081921 -0.03449207 36.82991535 -0.03816876 40.77901411 -0.0417164 C50.09165123 -0.04986619 59.40427867 -0.05230012 68.71691895 -0.05158997 C78.3383589 -0.05098872 87.95974287 -0.06154859 97.58116865 -0.07733363 C105.83000691 -0.09038685 114.07882682 -0.09577481 122.32767534 -0.09513456 C127.25958249 -0.09487895 132.19143989 -0.09776432 137.12333679 -0.10831261 C141.75914286 -0.1179566 146.39485123 -0.11809837 151.03066063 -0.11079597 C152.73590931 -0.10974557 154.44116396 -0.11213981 156.14640236 -0.11815643 C158.46661491 -0.12581524 160.78648487 -0.12127265 163.10668945 -0.11352539 C165.05791592 -0.11434254 165.05791592 -0.11434254 167.0485611 -0.1151762 C170.05334473 0.13371277 170.05334473 0.13371277 172.05334473 2.13371277 C172.29944038 3.9883976 172.29944038 3.9883976 172.29385376 6.28450012 C172.29797775 7.58861092 172.29797775 7.58861092 172.30218506 8.91906738 C172.29139923 10.35297066 172.29139923 10.35297066 172.28039551 11.81584167 C172.28068756 12.8207515 172.28097961 13.82566132 172.28128052 14.86102295 C172.27988329 18.19419384 172.26430355 21.52714326 172.24865723 24.86027527 C172.2449285 27.16670103 172.24208087 29.47312837 172.24008179 31.77955627 C172.23243432 37.85905813 172.21277626 43.93846488 172.19067383 50.01792908 C172.17023936 56.21796889 172.16108521 62.41802401 172.15100098 68.61808777 C172.12953143 80.79000462 172.09538208 92.9618508 172.05334473 105.13371277 C170.36400551 103.49003137 168.70074548 101.81942517 167.05334473 100.13371277 C166.46224411 99.54656494 165.87114349 98.95941711 165.26213074 98.35447693 C163.38765226 94.9107122 163.66185523 91.422104 163.71276855 87.60148621 C163.71240695 86.72873173 163.71204535 85.85597725 163.71167278 84.95677567 C163.71390966 82.13531198 163.73674477 79.31444491 163.76037598 76.49308777 C163.76478753 74.74976386 163.76784763 73.00643598 163.76953125 71.2631073 C163.78525177 64.80324847 163.82713548 58.34347474 163.86584473 51.88371277 C163.92771973 37.44621277 163.98959473 23.00871277 164.05334473 8.13371277 C109.60334473 8.13371277 55.15334473 8.13371277 -0.94665527 8.13371277 C-0.94665527 12.09371277 -0.94665527 16.05371277 -0.94665527 20.13371277 C1.88429214 20.12705093 1.88429214 20.12705093 4.77243042 20.12025452 C22.51947347 20.07979007 40.26650723 20.04964775 58.01358604 20.03008842 C67.1385114 20.01976494 76.26340237 20.00568419 85.38830566 19.98283386 C93.33926784 19.96293273 101.29020512 19.95000414 109.24119151 19.94553578 C113.45325909 19.94292282 117.66525545 19.93675914 121.87730026 19.92225266 C125.83839729 19.90872043 129.79939346 19.90448124 133.7605114 19.90749741 C135.21742869 19.90694528 136.6743492 19.90294192 138.13124657 19.89530182 C140.11423708 19.88540927 142.09728119 19.88892194 144.08029175 19.89320374 C145.74781526 19.89043836 145.74781526 19.89043836 147.44902611 19.88761711 C150.05334473 20.13371277 150.05334473 20.13371277 152.05334473 22.13371277 C152.29385376 24.8039093 152.29385376 24.8039093 152.28039551 28.23576355 C152.28016891 30.15752914 152.28016891 30.15752914 152.27993774 32.11811829 C152.26972368 33.52175551 152.25929167 34.92539117 152.24865723 36.32902527 C152.24492764 37.76106062 152.24208041 39.19309852 152.24008179 40.62513733 C152.232441 44.39649994 152.21278881 48.16770881 152.19067383 51.93901062 C152.17022492 55.78644226 152.16108212 59.63389871 152.15100098 63.48136902 C152.12954323 71.0322204 152.09540205 78.58294505 152.05334473 86.13371277 C149.41334473 85.14371277 146.77334473 84.15371277 144.05334473 83.13371277 C144.05334473 64.98371277 144.05334473 46.83371277 144.05334473 28.13371277 C89.60334473 28.13371277 35.15334473 28.13371277 -20.94665527 28.13371277 C-20.94665527 98.75371277 -20.94665527 169.37371277 -20.94665527 242.13371277 C33.50334473 242.13371277 87.95334473 242.13371277 144.05334473 242.13371277 C144.05334473 225.30371277 144.05334473 208.47371277 144.05334473 191.13371277 C150.05334473 188.13371277 150.05334473 188.13371277 152.05334473 188.13371277 C152.05334473 199.35371277 152.05334473 210.57371277 152.05334473 222.13371277 C156.01334473 222.13371277 159.97334473 222.13371277 164.05334473 222.13371277 C164.05334473 214.54371277 164.05334473 206.95371277 164.05334473 199.13371277 C171.05334473 205.13371277 171.05334473 205.13371277 172.05334473 206.13371277 C172.30490742 209.77270452 172.23856699 213.4245495 172.24084473 217.07121277 C172.25309082 218.09924011 172.26533691 219.12726746 172.2779541 220.18644714 C172.2798877 221.16806824 172.28182129 222.14968933 172.28381348 223.16105652 C172.28792236 224.06589783 172.29203125 224.97073914 172.29626465 225.90299988 C172.05334473 228.13371277 172.05334473 228.13371277 170.05334473 230.13371277 C168.1739502 230.36076355 168.1739502 230.36076355 165.92053223 230.32902527 C164.71203613 230.3193573 164.71203613 230.3193573 163.47912598 230.30949402 C162.63736816 230.29273621 161.79561035 230.27597839 160.92834473 230.25871277 C160.07885254 230.24968933 159.22936035 230.24066589 158.35412598 230.23136902 C156.25374589 230.20776924 154.15351029 230.1718976 152.05334473 230.13371277 C152.07654785 231.40988464 152.09975098 232.68605652 152.12365723 234.00090027 C152.14241301 235.67016527 152.16061342 237.33943657 152.17834473 239.00871277 C152.19510254 239.85047058 152.21186035 240.69222839 152.22912598 241.55949402 C152.23557129 242.36515808 152.2420166 243.17082214 152.24865723 244.00090027 C152.25913086 244.7445282 152.26960449 245.48815613 152.28039551 246.25431824 C152.05334473 248.13371277 152.05334473 248.13371277 150.05334473 250.13371277 C147.0485611 250.38260174 147.0485611 250.38260174 143.10668945 250.38095093 C142.02205972 250.38457255 142.02205972 250.38457255 140.91551828 250.38826734 C138.48025018 250.39392597 136.04524188 250.38522504 133.60998535 250.37663269 C131.86911447 250.37770504 130.12824393 250.37964301 128.38737488 250.38238525 C123.64987175 250.38724432 118.91246241 250.37956471 114.17497063 250.36943221 C109.22577897 250.36066884 104.27659041 250.36240882 99.32739258 250.36279297 C91.01483586 250.36185554 82.70231558 250.35316099 74.38977051 250.33952332 C64.7683446 250.32379697 55.14695863 250.31852517 45.5255208 250.31925887 C36.284154 250.31986851 27.04280026 250.31476895 17.80143738 250.30646706 C13.86207477 250.30292932 9.92271678 250.30110311 5.98335266 250.30057335 C1.3475631 250.2995713 -3.28819273 250.29348599 -7.92397118 250.28340721 C-9.62921632 250.28047794 -11.33446534 250.2792577 -13.03971291 250.27983475 C-15.35984487 250.2803229 -17.6798813 250.27469487 -20 250.26742554 C-21.30081764 250.26574969 -22.60163528 250.26407385 -23.94187164 250.26234722 C-26.94665527 250.13371277 -26.94665527 250.13371277 -28.94665527 249.13371277 C-28.94665527 173.89371277 -28.94665527 98.65371277 -28.94665527 21.13371277 C-26.65011828 19.98544427 -25.3635236 20.01810102 -22.81384277 20.03605652 C-22.08793945 20.03855408 -21.36203613 20.04105164 -20.61413574 20.04362488 C-19.69261719 20.05272888 -18.77109863 20.06183289 -17.82165527 20.07121277 C-14.89290527 20.09183777 -11.96415527 20.11246277 -8.94665527 20.13371277 C-8.94665527 13.86371277 -8.94665527 7.59371277 -8.94665527 1.13371277 C-5.97894622 -0.35014176 -3.31280749 0.00426789 0 0 Z "
     fill="#1C315D"
     transform="translate(107.9466552734375,65.86628723144531)"
     id="path4"
     style="fill:#1a2f5c;fill-opacity:1" />
  <path
     d="M0 0 C54.45 0 108.9 0 165 0 C164.9375 43.25 164.9375 43.25 164.84741211 56.84082031 C164.86394954 60.90686729 164.86394954 60.90686729 164.89234924 64.97283936 C164.89922693 66.76565765 164.88866759 68.55860022 164.86366272 70.35125732 C164.72227881 81.52381458 164.92273358 88.96820172 172.78297424 97.49481201 C180.52075092 106.23832125 182.47205118 119.48524864 182.25390625 130.78515625 C181.57788172 139.34466683 179.74714634 147.5433579 175.671875 155.1328125 C174.79370483 157.57330866 175.11682476 158.57029299 176 161 C177.6319527 163.01216019 177.6319527 163.01216019 179.7109375 164.93359375 C180.46117187 165.66513672 181.21140625 166.39667969 181.984375 167.15039062 C182.77328125 167.90513672 183.5621875 168.65988281 184.375 169.4375 C185.92913596 170.93136831 187.47877682 172.42993005 189.0234375 173.93359375 C189.71356934 174.59415771 190.40370117 175.25472168 191.11474609 175.93530273 C195.43160052 180.66304656 196.56213895 184.29587496 196.34765625 190.5625 C195.82190495 194.24866644 194.51185609 196.28983949 192 199 C187.5215149 202.05351257 183.29435723 202.94618031 178 202 C172.95575415 199.37699216 170.1583429 196.1583429 166 192 C165.67 199.26 165.34 206.52 165 214 C161.04 214 157.08 214 153 214 C153 202.78 153 191.56 153 180 C148.38 181.98 143.76 183.96 139 186 C126.24133625 188.55173275 110.80596321 188.92060244 99 183 C98.01257813 182.525625 97.02515625 182.05125 96.0078125 181.5625 C81.6073153 173.94086281 71.97438932 161.95515209 66.625 146.6875 C61.7225341 130.47165124 63.34434637 114.79950695 71.28125 99.87890625 C78.80418272 87.27799394 89.25316756 78.17026884 103 73 C103.72960937 72.68160156 104.45921875 72.36320312 105.2109375 72.03515625 C118.96741379 66.79804159 134.88364208 69.30473932 148 75 C149.33630545 75.660689 150.67026428 76.32618612 152 77 C152.0231271 68.80309439 152.04091696 60.60620232 152.05181217 52.40927219 C152.0570402 48.60348423 152.06413638 44.79771852 152.07543945 40.99194336 C152.0862712 37.32207456 152.09227744 33.65222722 152.09487724 29.98234367 C152.09673097 28.57925008 152.1003506 27.17615771 152.10573006 25.7730732 C152.11294419 23.8143032 152.11340809 21.8555118 152.11352539 19.89672852 C152.115746 18.77976089 152.11796661 17.66279327 152.12025452 16.51197815 C152.28510776 14.06094586 152.28510776 14.06094586 151 13 C149.05139494 12.89110269 147.09881426 12.8531 145.14720154 12.84178162 C143.23933365 12.82709839 143.23933365 12.82709839 141.29292297 12.81211853 C139.87033119 12.80621356 138.44773901 12.80040317 137.02514648 12.79467773 C135.53733037 12.78510465 134.049517 12.77509491 132.56170654 12.76467896 C128.51025963 12.73756208 124.45880098 12.71658937 120.40731311 12.69667697 C116.17785661 12.6748591 111.94843654 12.64744994 107.7190094 12.62062073 C99.7044292 12.57063688 91.68982884 12.52571924 83.67520911 12.48259836 C74.55320729 12.43327453 65.43124201 12.37833846 56.30927551 12.32291877 C37.5395507 12.20901138 18.76979092 12.10239059 0 12 C0 8.04 0 4.08 0 0 Z M82 98 C73.62706104 109.51058766 70.26130763 122.84584642 72.4609375 136.95703125 C75.6970902 151.48164603 82.92113577 163.50728238 95.375 171.875 C97.22958441 172.95259506 99.10440778 173.99629457 101 175 C102.19109375 175.65162109 102.19109375 175.65162109 103.40625 176.31640625 C113.91312452 181.08772427 128.70027985 180.73633706 139.625 177.4375 C153.97287795 171.624665 163.11747531 162.69372789 170 149 C175.11947071 136.74316502 175.61950618 123.72851283 171.33984375 111.1484375 C165.54711361 97.5363661 155.9762211 87.28494072 142.42578125 81.30004883 C119.92391237 72.24569909 97.44644244 79.9391338 82 98 Z "
     fill="#19AFDD"
     transform="translate(107,74)"
     id="path5" />
  <path
     d="M0 0 C1.08528488 -0.00426498 2.17056976 -0.00852997 3.28874207 -0.01292419 C5.08261101 -0.01224442 5.08261101 -0.01224442 6.91271973 -0.0115509 C8.79565483 -0.01658882 8.79565483 -0.01658882 10.71662903 -0.02172852 C14.16488687 -0.03057723 17.61311992 -0.03290696 21.06138802 -0.0335443 C23.93682732 -0.0344926 26.81226081 -0.03816988 29.68769789 -0.0417164 C36.4689256 -0.04986388 43.25014003 -0.05230032 50.03137207 -0.05158997 C57.0353052 -0.05098873 64.03916143 -0.06154892 71.04307508 -0.07733363 C77.0498947 -0.09039063 83.05668911 -0.09577466 89.06352282 -0.09513456 C92.65404493 -0.09487907 96.24449869 -0.09775798 99.83500671 -0.10831261 C103.83622537 -0.11975324 107.83727057 -0.11525812 111.83850098 -0.10920715 C113.63236992 -0.11763641 113.63236992 -0.11763641 115.46247864 -0.12623596 C116.54776352 -0.12204147 117.6330484 -0.11784698 118.7512207 -0.11352539 C119.69806984 -0.11407016 120.64491898 -0.11461493 121.62046051 -0.1151762 C123.87561035 0.13371277 123.87561035 0.13371277 125.87561035 2.13371277 C125.3200548 6.68926832 125.3200548 6.68926832 123.87561035 8.13371277 C122.1973273 8.23423103 120.51479932 8.26447564 118.83351135 8.26742554 C117.1950248 8.27382301 117.1950248 8.27382301 115.5234375 8.28034973 C114.31457886 8.27989655 113.10572021 8.27944336 111.86022949 8.27897644 C109.96288307 8.28401436 109.96288307 8.28401436 108.02720642 8.28915405 C104.54789867 8.29801434 101.06861548 8.30033302 97.58929753 8.30096984 C94.68905514 8.30191729 91.78881853 8.30559369 88.88857836 8.30914193 C82.04839661 8.31729423 75.20822804 8.31972547 68.36804199 8.3190155 C61.30221392 8.31841452 54.23646216 8.32896866 47.1706534 8.34475917 C41.11289899 8.35781657 35.05516957 8.36320016 28.99740118 8.36256009 C25.37556527 8.36230457 21.75379712 8.36518543 18.13197517 8.37573814 C14.09472528 8.38717938 10.05764728 8.38268339 6.02038574 8.37663269 C4.21013412 8.38506195 4.21013412 8.38506195 2.36331177 8.3936615 C1.26816757 8.38946701 0.17302338 8.38527252 -0.95530701 8.38095093 C-2.38859046 8.38176808 -2.38859046 8.38176808 -3.85082912 8.38260174 C-6.12438965 8.13371277 -6.12438965 8.13371277 -8.12438965 6.13371277 C-7.87438965 3.57121277 -7.87438965 3.57121277 -7.12438965 1.13371277 C-4.59122439 -0.13286986 -2.83648551 0.00502034 0 0 Z "
     fill="#203460"
     transform="translate(110.1243896484375,275.8662872314453)"
     id="path7"
     style="fill:#1a2f5c;fill-opacity:1" />
  <path
     d="M0 0 C0.88334518 -0.00563965 1.76669037 -0.0112793 2.67680359 -0.01708984 C3.64829849 -0.01304138 4.6197934 -0.00899292 5.62072754 -0.00482178 C7.1525341 -0.01007874 7.1525341 -0.01007874 8.71528625 -0.01544189 C12.10375693 -0.02427187 15.49202022 -0.01840554 18.88049316 -0.01165771 C21.22696981 -0.013004 23.57344619 -0.01494422 25.91992188 -0.01745605 C30.84284109 -0.02040904 35.76568783 -0.01610405 40.68859863 -0.0067749 C47.01085935 0.00461967 53.33295029 -0.00193886 59.65520477 -0.01391983 C64.50206795 -0.02113371 69.34889063 -0.01885267 74.195755 -0.01366425 C76.52745076 -0.01232644 78.85915016 -0.01398001 81.19084167 -0.01862335 C84.44491369 -0.0236808 87.69870758 -0.01598925 90.95275879 -0.00482178 C91.92425369 -0.00887024 92.8957486 -0.0129187 93.89668274 -0.01708984 C95.22170052 -0.00863037 95.22170052 -0.00863037 96.57348633 0 C97.72828365 0.00113108 97.72828365 0.00113108 98.90641022 0.002285 C100.78674316 0.25396729 100.78674316 0.25396729 102.78674316 2.25396729 C102.23118761 6.80952284 102.23118761 6.80952284 100.78674316 8.25396729 C99.41031417 8.35151293 98.02892882 8.38028348 96.64904785 8.38095093 C95.75721802 8.38377075 94.86538818 8.38659058 93.9465332 8.38949585 C92.96052124 8.38747162 91.97450928 8.38544739 90.95861816 8.38336182 C89.92619995 8.38511414 88.89378174 8.38686646 87.83007812 8.38867188 C84.39894964 8.39309261 80.96787222 8.39015162 77.53674316 8.38677979 C75.16402171 8.38745276 72.79130032 8.38842273 70.4185791 8.38967896 C65.43842922 8.39115623 60.45829723 8.38900042 55.47814941 8.38433838 C49.07845638 8.37864108 42.67880527 8.38191993 36.27911377 8.38791084 C31.37739747 8.39151566 26.4756912 8.39037824 21.57397461 8.38778305 C19.21354162 8.38711356 16.85310773 8.38794296 14.49267578 8.3902626 C11.20004854 8.39278783 7.90749024 8.38895037 4.61486816 8.38336182 C3.6288562 8.38538605 2.64284424 8.38741028 1.62695312 8.38949585 C0.73512329 8.38667603 -0.15670654 8.3838562 -1.07556152 8.38095093 C-1.85502136 8.3805739 -2.6344812 8.38019688 -3.43756104 8.37980843 C-5.21325684 8.25396729 -5.21325684 8.25396729 -6.21325684 7.25396729 C-6.40075684 4.81646729 -6.40075684 4.81646729 -6.21325684 2.25396729 C-3.80811609 -0.15117346 -3.28053106 0.00321315 0 0 Z "
     fill="#1F335F"
     transform="translate(133.2132568359375,120.74603271484375)"
     id="path8"
     style="fill:#1a2f5c;fill-opacity:1" />
  <path
     d="M0 0 C1.226548 0.00303635 1.226548 0.00303635 2.47787476 0.00613403 C3.76315567 0.00350555 3.76315567 0.00350555 5.07440186 0.00082397 C7.9211527 -0.00359561 10.76784197 -0.00065618 13.61459351 0.00271606 C15.58375053 0.00204306 17.55290747 0.00107306 19.52206421 -0.00018311 C23.65480335 -0.00166022 27.78752093 0.00049492 31.92025757 0.00515747 C37.23033871 0.01085476 42.54036932 0.00757583 47.85044861 0.00158501 C51.91834904 -0.00202023 55.9862374 -0.00088219 60.05413818 0.0017128 C62.01265468 0.00238217 63.97117226 0.00155329 65.9296875 -0.00076675 C68.6619255 -0.00329267 71.39408047 0.00054645 74.12631226 0.00613403 C74.94401093 0.0041098 75.76170959 0.00208557 76.60418701 0 C82.18783105 0.02126611 82.18783105 0.02126611 83.30209351 1.13552856 C83.48959351 3.57302856 83.48959351 3.57302856 83.30209351 6.13552856 C80.75024343 8.68737864 79.09757698 8.37946009 75.61779785 8.40658569 C74.42705154 8.400513 74.42705154 8.400513 73.21224976 8.39431763 C71.95841995 8.39957458 71.95841995 8.39957458 70.67926025 8.40493774 C67.90762096 8.4137627 65.13623553 8.40790324 62.36459351 8.40115356 C60.44410147 8.4025 58.52360976 8.40444034 56.6031189 8.4069519 C52.57468425 8.4099042 48.54633819 8.40560213 44.51791382 8.39627075 C39.34578908 8.38487617 34.17387188 8.39143507 29.00175476 8.40341568 C25.03502835 8.41063143 21.06835141 8.40834767 17.10162354 8.4031601 C15.19417293 8.40182281 13.28671788 8.40347407 11.37927246 8.4081192 C8.71670579 8.41317976 6.05447855 8.40548092 3.39193726 8.39431763 C2.59810638 8.39836609 1.80427551 8.40241455 0.98638916 8.40658569 C-4.46937821 8.36405685 -4.46937821 8.36405685 -6.69790649 6.13552856 C-6.88540649 3.57302856 -6.88540649 3.57302856 -6.69790649 1.13552856 C-4.88919188 -0.67318605 -2.40777343 0.00917035 0 0 Z "
     fill="#19AFDE"
     transform="translate(191.69790649414063,198.86447143554688)"
     id="path9" />
  <path
     d="M0 0 C0.71884369 -0.00350464 1.43768738 -0.00700928 2.17831421 -0.01062012 C4.56037991 -0.01944059 6.9421499 -0.0135873 9.32421875 -0.00683594 C10.9756679 -0.0081825 12.62711666 -0.01012296 14.27856445 -0.01263428 C17.74206308 -0.01558596 21.20545865 -0.01128651 24.66894531 -0.00195312 C29.11467186 0.00944148 33.56015695 0.00288224 38.00587463 -0.00909805 C41.41672596 -0.01631548 44.82751977 -0.01402928 48.2383728 -0.00884247 C49.87787911 -0.00750564 51.5173906 -0.00915483 53.15689087 -0.01380157 C55.44588101 -0.01886494 57.73447683 -0.01115956 60.0234375 0 C61.97963013 0.00238678 61.97963013 0.00238678 63.9753418 0.00482178 C67.01171875 0.25878906 67.01171875 0.25878906 69.01171875 2.25878906 C69.26171875 4.75878906 69.26171875 4.75878906 69.01171875 7.25878906 C66.12891303 10.14159478 64.07616744 9.51915227 60.03930664 9.53344727 C58.96345055 9.54111366 58.96345055 9.54111366 57.86585999 9.54893494 C55.48861406 9.56286535 53.11165695 9.56187159 50.734375 9.55957031 C49.08532096 9.56345546 47.43626792 9.56778975 45.78721619 9.57255554 C42.3279191 9.58002524 38.86872405 9.57972116 35.40942383 9.57446289 C30.97268513 9.56866828 26.5363639 9.58559518 22.09969425 9.60880756 C18.69308523 9.62352803 15.28657713 9.62441891 11.87994194 9.62129784 C10.24404511 9.62181194 8.60814276 9.62706627 6.97227669 9.63710976 C4.68574914 9.64942408 2.4000395 9.64271328 0.11352539 9.63110352 C-1.18838242 9.63173294 -2.49029022 9.63236237 -3.83164978 9.63301086 C-6.98828125 9.25878906 -6.98828125 9.25878906 -8.94386292 7.86442566 C-9.98828125 6.25878906 -9.98828125 6.25878906 -9.80078125 4.19628906 C-7.76260398 -0.6639798 -4.7769457 0.00582842 0 0 Z "
     fill="#31446C"
     transform="translate(111.98828125,236.7412109375)"
     id="path10"
     style="fill:#1a2f5c;fill-opacity:1" />
  <path
     d="M0 0 C1.04185204 0.00303635 1.04185204 0.00303635 2.10475159 0.00613403 C2.83320282 0.00438171 3.56165405 0.00262939 4.31217957 0.00082397 C6.73207447 -0.003595 9.15189689 -0.0006561 11.5717926 0.00271606 C13.2470908 0.00204296 14.9223889 0.00107289 16.59768677 -0.00018311 C20.11421129 -0.0016602 23.63071047 0.00049457 27.14723206 0.00515747 C31.66130565 0.01085038 36.17531974 0.00757861 40.68939114 0.00158501 C44.1508428 -0.00202404 47.61228029 -0.00088036 51.07373238 0.0017128 C52.73835825 0.00238134 54.4029854 0.00155617 56.06760979 -0.00076675 C58.39252516 -0.00329841 60.71734347 0.00055479 63.04225159 0.00613403 C63.73479538 0.0041098 64.42733917 0.00208557 65.14086914 0 C69.90967149 0.02126488 69.90967149 0.02126488 72.13819885 1.13552856 C72.13819885 3.11552856 72.13819885 5.09552856 72.13819885 7.13552856 C69.21111956 8.59906821 66.26655006 8.28289654 63.05812073 8.28079224 C61.96522484 8.28583015 61.96522484 8.28583015 60.85025024 8.29096985 C58.43579923 8.30048849 56.02141747 8.30242329 53.60694885 8.30349731 C51.93307974 8.30670881 50.25921092 8.3100728 48.58534241 8.31358337 C45.07479705 8.31957661 41.56427631 8.32142303 38.0537262 8.3208313 C33.54748411 8.32072956 29.04139919 8.33439277 24.5351944 8.35160351 C21.0780311 8.36270095 17.6209061 8.36475122 14.16372681 8.36422157 C12.50188657 8.36540468 10.84004543 8.36984486 9.17822266 8.37755394 C6.8581274 8.3873103 4.53837734 8.38449346 2.21827698 8.37844849 C1.52730423 8.38406799 0.83633148 8.3896875 0.12442017 8.39547729 C-4.63348393 8.36384578 -4.63348393 8.36384578 -6.86180115 6.13552856 C-6.18403598 0.57785417 -5.51884286 0.02471967 0 0 Z "
     fill="#1A2F5C"
     transform="translate(108.86180114746094,159.86447143554688)"
     id="path11"
     style="fill:#1a2f5c;fill-opacity:1" />
  <path
     d="M0 0 C1.25477646 -0.00637985 2.50955292 -0.0127597 3.80235291 -0.01933289 C5.18276939 -0.02086145 6.56318638 -0.02197547 7.94360352 -0.02270508 C9.34985896 -0.025916 10.75611405 -0.02927995 12.16236877 -0.03279114 C15.11395034 -0.03878864 18.06550261 -0.04063041 21.01708984 -0.04003906 C24.80481022 -0.03993742 28.59234324 -0.05358917 32.38001919 -0.07081127 C35.28559741 -0.08191375 38.1911301 -0.08395881 41.09672737 -0.08342934 C42.49341541 -0.08461212 43.89010452 -0.08905054 45.28677177 -0.0967617 C47.23803178 -0.10652558 49.1893464 -0.10242867 51.140625 -0.09765625 C52.2523558 -0.09908127 53.36408661 -0.10050629 54.50950623 -0.10197449 C57.13500977 0.14526367 57.13500977 0.14526367 59.13500977 2.14526367 C58.88500977 4.70776367 58.88500977 4.70776367 58.13500977 7.14526367 C55.45055617 8.48749047 53.36180495 8.28721826 50.35595703 8.30639648 C49.1445253 8.31600403 47.93309357 8.32561157 46.68495178 8.33551025 C44.71310158 8.34188507 44.71310158 8.34188507 42.70141602 8.34838867 C41.34382627 8.35413991 39.98623655 8.35989764 38.62864685 8.36566162 C35.78139873 8.37616981 32.93417885 8.38201386 30.08691406 8.38549805 C26.43711854 8.39098677 22.78769534 8.41502307 19.1380167 8.44347 C16.33362229 8.46208481 13.52931785 8.46730131 10.72486687 8.46883392 C8.72453882 8.47333662 6.7242589 8.49198736 4.72401428 8.51080322 C3.50943039 8.50780212 2.2948465 8.50480103 1.04345703 8.50170898 C-0.56298927 8.50717743 -0.56298927 8.50717743 -2.20188904 8.51275635 C-4.86499023 8.14526367 -4.86499023 8.14526367 -6.74989319 6.75579834 C-7.86499023 5.14526367 -7.86499023 5.14526367 -7.61499023 3.02026367 C-6.0717783 -0.83776616 -3.90971322 0.01341486 0 0 Z "
     fill="#223661"
     transform="translate(109.864990234375,198.854736328125)"
     id="path12"
     style="fill:#222f5c;fill-opacity:1" />
  <path
     d="M0 0 C1.28753174 0.00607269 1.28753174 0.00607269 2.60107422 0.01226807 C3.92147705 0.00939789 3.92147705 0.00939789 5.26855469 0.00646973 C7.13135056 0.00510755 8.99415591 0.00880625 10.85693359 0.01715088 C13.71457158 0.02785 16.57158088 0.01725675 19.42919922 0.00445557 C21.23649228 0.00577716 23.04378495 0.00833954 24.85107422 0.01226807 C25.70942871 0.0082196 26.5677832 0.00417114 27.45214844 0 C33.49615677 0.04797562 33.49615677 0.04797562 35.72607422 2.27789307 C35.97607422 4.77789307 35.97607422 4.77789307 35.72607422 7.27789307 C33.06537217 9.93859511 31.07127743 9.52705852 27.45214844 9.55578613 C26.1646167 9.54971344 26.1646167 9.54971344 24.85107422 9.54351807 C23.53067139 9.54638824 23.53067139 9.54638824 22.18359375 9.54931641 C20.32079788 9.55067858 18.45799252 9.54697988 16.59521484 9.53863525 C13.73757686 9.52793613 10.88056756 9.53852938 8.02294922 9.55133057 C6.21565616 9.55000898 4.40836349 9.5474466 2.60107422 9.54351807 C1.74271973 9.54756653 0.88436523 9.55161499 0 9.55578613 C-6.04400833 9.50781051 -6.04400833 9.50781051 -8.27392578 7.27789307 C-8.52392578 4.77789307 -8.52392578 4.77789307 -8.27392578 2.27789307 C-5.61322373 -0.38280898 -3.619129 0.02872762 0 0 Z "
     fill="#2BB5E0"
     transform="translate(216.27392578125,236.72210693359375)"
     id="path13" />
  <path
     d="M0 0 C0.8816835 -0.0033284 1.763367 -0.0066568 2.67176819 -0.01008606 C4.54053219 -0.01515908 6.40930529 -0.01749427 8.27807617 -0.01733398 C11.14451969 -0.01951933 14.01057785 -0.0376678 16.87695312 -0.05664062 C18.68880076 -0.05957464 20.50065023 -0.06155938 22.3125 -0.0625 C23.60473732 -0.07327827 23.60473732 -0.07327827 24.92308044 -0.08427429 C30.99383465 -0.06085285 30.99383465 -0.06085285 33.22265625 2.16796875 C32.66710069 6.72352431 32.66710069 6.72352431 31.22265625 8.16796875 C28.28899879 8.28149891 25.37977163 8.33215583 22.4453125 8.3359375 C21.563629 8.3392659 20.6819455 8.3425943 19.77354431 8.34602356 C17.90478031 8.35109658 16.03600721 8.35343177 14.16723633 8.35327148 C11.30079281 8.35545683 8.43473465 8.3736053 5.56835938 8.39257812 C3.75651174 8.39551214 1.94466227 8.39749688 0.1328125 8.3984375 C-1.15942482 8.40921577 -1.15942482 8.40921577 -2.47776794 8.42021179 C-8.54852215 8.39679035 -8.54852215 8.39679035 -10.77734375 6.16796875 C-9.87664224 -1.21778362 -6.5773462 0.00847631 0 0 Z "
     fill="#12ADDD"
     transform="translate(218.77734375,159.83203125)"
     id="path16" />
</svg>
