<?xml version="1.0" encoding="UTF-8" standalone="no"?>
<svg
   version="1.1"
   width="406"
   height="410"
   id="svg14"
   sodipodi:docname="Especialistas.svg"
   inkscape:version="1.4-rc1 (61ec3f2, 2024-09-26)"
   xmlns:inkscape="http://www.inkscape.org/namespaces/inkscape"
   xmlns:sodipodi="http://sodipodi.sourceforge.net/DTD/sodipodi-0.dtd"
   xmlns="http://www.w3.org/2000/svg"
   xmlns:svg="http://www.w3.org/2000/svg">
  <defs
     id="defs14" />
  <sodipodi:namedview
     id="namedview14"
     pagecolor="#505050"
     bordercolor="#ffffff"
     borderopacity="1"
     inkscape:showpageshadow="0"
     inkscape:pageopacity="0"
     inkscape:pagecheckerboard="1"
     inkscape:deskcolor="#505050"
     showgrid="false"
     inkscape:zoom="2.004878"
     inkscape:cx="202.75547"
     inkscape:cy="205"
     inkscape:window-width="1920"
     inkscape:window-height="1017"
     inkscape:window-x="-8"
     inkscape:window-y="-8"
     inkscape:window-maximized="1"
     inkscape:current-layer="svg14" />
  <path
     d="M0 0 C1.15306522 -0.00551503 1.15306522 -0.00551503 2.32942468 -0.01114148 C4.9133335 -0.02218204 7.4972021 -0.0260228 10.08113098 -0.02983093 C11.93063993 -0.03609533 13.78014762 -0.04274211 15.62965393 -0.04974365 C21.7108828 -0.07079023 27.79211193 -0.08114698 33.87336731 -0.09111023 C35.96671881 -0.09515764 38.06007017 -0.09927456 40.1534214 -0.10346031 C49.98852585 -0.12251373 59.82362278 -0.13674413 69.65874213 -0.14507228 C81.01127183 -0.154844 92.36360651 -0.18116125 103.71606749 -0.22157317 C112.49070437 -0.25173656 121.26528536 -0.2665414 130.03997308 -0.26985329 C135.28064485 -0.27220364 140.52110832 -0.28116216 145.76172447 -0.30631447 C150.69393265 -0.32960381 155.62579551 -0.33382489 160.55804443 -0.32355309 C162.36560019 -0.32305782 164.173173 -0.32937564 165.98067665 -0.34310913 C168.45448893 -0.36084938 170.92706476 -0.35371211 173.40087891 -0.34057617 C174.11091904 -0.35154542 174.82095918 -0.36251466 175.55251569 -0.37381631 C180.92172943 -0.30530069 185.11041058 1.17883023 189.51789856 4.14717102 C192.61893038 7.86840921 193.51789856 9.26071027 193.51789856 14.14717102 C195.09256897 14.13146057 195.09256897 14.13146057 196.6990509 14.11543274 C200.58654889 14.07928649 204.47403197 14.05629024 208.36164856 14.03730774 C210.04559322 14.02723785 211.72952035 14.01358114 213.41340637 13.99629211 C215.83109357 13.97208677 218.24854999 13.96069806 220.66633606 13.95185852 C221.42159576 13.94153595 222.17685547 13.93121338 222.95500183 13.920578 C224.81083836 13.92017784 226.66609136 14.02494386 228.51789856 14.14717102 C231.30640858 16.93568104 230.76938986 18.61624337 230.77186584 22.52436829 C230.77654582 23.51711809 230.77654582 23.51711809 230.78132033 24.52992344 C230.78932718 26.75789741 230.78296641 28.98560105 230.77668762 31.21357727 C230.7793963 32.80666769 230.78295653 34.39975685 230.78730774 35.99284363 C230.79644872 40.32746305 230.79288048 44.66198759 230.78654957 48.99660873 C230.78149839 53.52539584 230.78617855 58.05417463 230.7893219 62.58296204 C230.79296413 70.18934086 230.78815573 77.79568089 230.77864075 85.40205383 C230.7677557 94.20552841 230.7712811 103.00891036 230.78229356 111.8123827 C230.79135914 119.36059521 230.79265529 126.90877977 230.78741622 134.45699596 C230.78429249 138.96971341 230.78389817 143.48238726 230.7904892 147.99510193 C230.79625145 152.23694842 230.79228643 156.47867508 230.78070068 160.72050858 C230.77804807 162.28062363 230.77882938 163.84074872 230.78322601 165.40085983 C230.7886594 167.52403562 230.7818747 169.64682298 230.77186584 171.76997375 C230.77073477 173.55527748 230.77073477 173.55527748 230.76958084 175.37664795 C230.51789856 178.14717102 230.51789856 178.14717102 228.51789856 180.14717102 C226.27836609 180.3988533 226.27836609 180.3988533 223.43147278 180.40113831 C222.35460205 180.40677795 221.27773132 180.4124176 220.16822815 180.41822815 C218.98166626 180.41417969 217.79510437 180.41013123 216.57258606 180.40596008 C214.70428131 180.41121704 214.70428131 180.41121704 212.79823303 180.4165802 C209.37675393 180.42388959 205.95551575 180.42215498 202.53404999 180.41582203 C198.95818755 180.4107684 195.38233561 180.4154517 191.80647278 180.41859436 C185.8007573 180.42223587 179.79509096 180.41743008 173.78938293 180.40791321 C166.83997344 180.39702828 159.89068129 180.40055373 152.94127464 180.41156602 C146.98115724 180.42063365 141.02107521 180.42192675 135.06095314 180.41668868 C131.49838461 180.41356608 127.93587129 180.41316754 124.37330627 180.41976166 C120.40322791 180.42659639 116.43328163 180.4171309 112.46321106 180.40596008 C110.68336823 180.41203278 110.68336823 180.41203278 108.86756897 180.41822815 C107.25226288 180.40976868 107.25226288 180.40976868 105.60432434 180.40113831 C104.19511215 180.40000723 104.19511215 180.40000723 102.75743103 180.3988533 C100.51789856 180.14717102 100.51789856 180.14717102 98.51789856 178.14717102 C98.29084778 175.34980774 98.29084778 175.34980774 98.32258606 171.82685852 C98.32903137 170.57002258 98.33547668 169.31318665 98.34211731 168.01826477 C98.36725403 166.04019836 98.36725403 166.04019836 98.39289856 164.02217102 C98.40292873 162.68233381 98.41205452 161.3424895 98.42024231 160.00263977 C98.44387781 156.71730529 98.47682622 153.43232637 98.51789856 150.14717102 C96.64987328 150.16715652 96.64987328 150.16715652 94.74411011 150.18754578 C82.98883138 150.30935114 71.23368125 150.39920339 59.47791386 150.45804405 C53.43457736 150.48931217 47.39175166 150.53170387 41.34870911 150.59980774 C35.51314738 150.66515929 29.67807595 150.70091104 23.84217644 150.71643448 C21.61945824 150.72749232 19.39676587 150.74908605 17.17425728 150.78155136 C14.05262599 150.82532335 10.93300189 150.83109628 7.81111145 150.82832336 C6.89904434 150.84989502 5.98697723 150.87146667 5.04727173 150.89369202 C-1.79337112 150.82825311 -6.49197603 148.88887472 -11.48210144 144.14717102 C-15.31860066 139.09227368 -16.06005757 134.09002761 -15.936203 127.8952179 C-15.93678711 127.11376404 -15.93737122 126.33231018 -15.93797302 125.5271759 C-15.93521116 122.97295451 -15.90421148 120.41993567 -15.87272644 117.86592102 C-15.86525725 116.08374163 -15.85956752 114.30155397 -15.85557556 112.5193634 C-15.84037256 107.85030564 -15.8011374 103.18175313 -15.75675964 98.51289368 C-15.71569125 93.74001396 -15.69753993 88.96705186 -15.67741394 84.19404602 C-15.63463743 74.84486686 -15.56645147 65.49606111 -15.48210144 56.14717102 C-16.80210144 55.48717102 -18.12210144 54.82717102 -19.48210144 54.14717102 C-19.58120315 48.13322219 -19.6536806 42.11975187 -19.701828 36.10517883 C-19.72190564 34.06049822 -19.74917369 32.01587475 -19.78385925 29.97138977 C-19.83254663 27.02723565 -19.85510888 24.08384268 -19.87272644 21.13935852 C-19.89337158 20.22975372 -19.91401672 19.32014893 -19.93528748 18.38298035 C-19.93725483 12.78002833 -19.24117446 9.58260217 -15.48210144 5.14717102 C-10.41892041 0.57795887 -6.61719123 -0.00169159 0 0 Z "
     fill="#16AEDD"
     transform="translate(97.48210144042969,111.85282897949219)"
     id="path2"
     style="fill:#16afdd;fill-opacity:1" />
  <path
     d="M0 0 C38.28 0 76.56 0 116 0 C116 49.5 116 99 116 150 C77.72 150 39.44 150 0 150 C0 100.5 0 51 0 0 Z "
     fill="#FDFEFE"
     transform="translate(204,134)"
     id="path3" />
  <path
     d="M0 0 C1.15306522 -0.00551503 1.15306522 -0.00551503 2.32942468 -0.01114148 C4.9133335 -0.02218204 7.4972021 -0.0260228 10.08113098 -0.02983093 C11.93063993 -0.03609533 13.78014762 -0.04274211 15.62965393 -0.04974365 C21.7108828 -0.07079023 27.79211193 -0.08114698 33.87336731 -0.09111023 C35.96671881 -0.09515764 38.06007017 -0.09927456 40.1534214 -0.10346031 C49.98852585 -0.12251373 59.82362278 -0.13674413 69.65874213 -0.14507228 C81.01127183 -0.154844 92.36360651 -0.18116125 103.71606749 -0.22157317 C112.49070437 -0.25173656 121.26528536 -0.2665414 130.03997308 -0.26985329 C135.28064485 -0.27220364 140.52110832 -0.28116216 145.76172447 -0.30631447 C150.69393265 -0.32960381 155.62579551 -0.33382489 160.55804443 -0.32355309 C162.36560019 -0.32305782 164.173173 -0.32937564 165.98067665 -0.34310913 C168.45448893 -0.36084938 170.92706476 -0.35371211 173.40087891 -0.34057617 C174.11091904 -0.35154542 174.82095918 -0.36251466 175.55251569 -0.37381631 C180.92172943 -0.30530069 185.11041058 1.17883023 189.51789856 4.14717102 C192.61893038 7.86840921 193.51789856 9.26071027 193.51789856 14.14717102 C187.75617981 14.63545227 187.75617981 14.63545227 185.51789856 14.14717102 C184.80500199 13.32505662 184.09210543 12.50294222 183.35760593 11.65591526 C179.83987107 8.5481665 177.32013086 8.44440269 172.84429932 8.51898193 C171.69668809 8.50834035 171.69668809 8.50834035 170.52589279 8.49748379 C167.96599276 8.47990187 165.40761074 8.49800829 162.84773254 8.5160675 C161.01113697 8.51092878 159.17454632 8.50364785 157.33796692 8.49438477 C152.35243076 8.47585791 147.36742883 8.48881697 142.38191485 8.50847507 C137.16674337 8.52484975 131.95160603 8.51605043 126.73641968 8.51095581 C117.97932898 8.50643394 109.22245181 8.52231154 100.46540833 8.55024719 C90.33659251 8.58230946 80.20816164 8.58227977 70.07931846 8.56503242 C60.33974653 8.54917792 50.60031593 8.55589332 40.8607502 8.57296944 C36.71367195 8.57984756 32.56670673 8.5787997 28.41963005 8.57142448 C23.53822616 8.56377259 18.65726129 8.57585188 13.77593231 8.60327339 C11.98284521 8.61016945 10.18971721 8.61024215 8.39663124 8.60305786 C5.95209963 8.59439083 3.50893154 8.61027097 1.06451416 8.63250732 C0.35196879 8.62426656 -0.36057657 8.61602579 -1.09471422 8.6075353 C-4.41941709 8.66350306 -6.21730759 8.95239258 -8.92538357 10.94441319 C-11.26337964 14.25268069 -10.9775961 17.51768094 -10.87272644 21.41279602 C-10.86706665 22.20619385 -10.86140686 22.99959167 -10.85557556 23.81703186 C-10.83323291 26.34436575 -10.7830432 28.87026767 -10.73210144 31.39717102 C-10.71203358 33.11329634 -10.69378331 34.82944394 -10.67741394 36.54560852 C-10.63337539 40.74667882 -10.5643647 44.94668237 -10.48210144 49.14717102 C-8.77171692 49.74235535 -8.77171692 49.74235535 -7.02677917 50.3495636 C16.51404195 58.54315471 40.04092981 66.77219097 63.51789856 75.14717102 C63.49469543 74.37631165 63.47149231 73.60545227 63.44758606 72.81123352 C63.42953918 71.8083429 63.41149231 70.80545227 63.39289856 69.77217102 C63.36969543 68.77443665 63.34649231 67.77670227 63.32258606 66.74873352 C63.51789856 64.14717102 63.51789856 64.14717102 65.51789856 62.14717102 C68.02710701 61.97221497 70.42414797 61.91547534 72.93196106 61.95185852 C73.66160065 61.95468842 74.39124023 61.95751831 75.14299011 61.96043396 C77.47645884 61.971641 79.80954559 61.99674592 82.14289856 62.02217102 C83.72362219 62.03220017 85.30435183 62.04132613 86.88508606 62.04951477 C90.7628377 62.07158197 94.64030334 62.10611487 98.51789856 62.14717102 C98.51789856 64.78717102 98.51789856 67.42717102 98.51789856 70.14717102 C89.60789856 70.14717102 80.69789856 70.14717102 71.51789856 70.14717102 C71.60039856 73.11717102 71.68289856 76.08717102 71.76789856 79.14717102 C71.79158508 80.52582336 71.79158508 80.52582336 71.81575012 81.93232727 C72.04982426 87.67823138 73.13312831 92.40383958 76.51789856 97.14717102 C79.70931876 99.96268954 82.84147163 101.06410105 87.08039856 101.58467102 C90.80735138 101.11033157 93.25914835 99.96600835 96.51789856 98.14717102 C97.17789856 98.14717102 97.83789856 98.14717102 98.51789856 98.14717102 C98.59886659 99.60459565 98.6570763 101.06329909 98.70539856 102.52217102 C98.75760559 103.74033508 98.75760559 103.74033508 98.81086731 104.98310852 C98.71418762 105.69724915 98.61750793 106.41138977 98.51789856 107.14717102 C93.70735678 110.35419888 88.23522452 111.0122273 82.51789856 110.14717102 C73.96599567 107.19960635 68.91258285 102.53742555 64.64289856 94.70967102 C63.32692428 90.54241913 63.28947008 87.4873121 63.51789856 83.14717102 C62.55649963 83.04678528 61.59510071 82.94639954 60.60456848 82.8429718 C55.90309929 82.16581182 51.58976286 80.60871199 47.13117981 79.01435852 C46.23408798 78.69943451 45.33699615 78.3845105 44.41271973 78.06004333 C41.54977097 77.05347095 38.69006115 76.03803695 35.83039856 75.02217102 C33.96016671 74.36271855 32.08972551 73.70385947 30.21907043 73.04560852 C26.50716812 71.73855448 22.79648422 70.42812822 19.08674622 69.11494446 C10.57183493 66.10278261 2.04451243 63.12600709 -6.48210144 60.14717102 C-6.5748227 69.83953844 -6.64587705 79.53175295 -6.68935013 89.22446728 C-6.71021615 93.7253099 -6.73851556 98.22584886 -6.78385925 102.72651672 C-6.82735252 107.0707529 -6.85124596 111.41469718 -6.86161041 115.75913429 C-6.86899557 117.41574511 -6.88341724 119.07234013 -6.90502167 120.72882652 C-6.93410296 123.05116037 -6.93805563 125.37229151 -6.936203 127.69477844 C-6.95058411 128.37810745 -6.96496521 129.06143646 -6.9797821 129.76547241 C-6.93914061 134.48055561 -5.79732464 136.83177893 -2.48210144 140.14717102 C-0.22647447 141.27498451 1.01345107 141.28320756 3.51683044 141.3053894 C4.35258102 141.31517822 5.1883316 141.32496704 6.04940796 141.33505249 C6.96794052 141.34080795 7.88647308 141.34656342 8.83283997 141.35249329 C9.7987355 141.36239288 10.76463104 141.37229248 11.75979614 141.38249207 C14.96299257 141.41416319 18.16620384 141.43888667 21.36946106 141.46357727 C23.58621107 141.48414195 25.80295711 141.50513829 28.0196991 141.52655029 C33.86238907 141.58182114 39.70511472 141.63120829 45.54786682 141.67939758 C51.50665981 141.72957604 57.46540081 141.78528116 63.42414856 141.8405304 C75.12202084 141.94817328 86.81993821 142.04960461 98.51789856 142.14717102 C98.51789856 144.78717102 98.51789856 147.42717102 98.51789856 150.14717102 C85.50470895 150.28639566 72.4916975 150.3929067 59.47791386 150.45804405 C53.43457736 150.48931217 47.39175166 150.53170387 41.34870911 150.59980774 C35.51314738 150.66515929 29.67807595 150.70091104 23.84217644 150.71643448 C21.61945824 150.72749232 19.39676587 150.74908605 17.17425728 150.78155136 C14.05262599 150.82532335 10.93300189 150.83109628 7.81111145 150.82832336 C6.89904434 150.84989502 5.98697723 150.87146667 5.04727173 150.89369202 C-1.79337112 150.82825311 -6.49197603 148.88887472 -11.48210144 144.14717102 C-15.31860066 139.09227368 -16.06005757 134.09002761 -15.936203 127.8952179 C-15.93678711 127.11376404 -15.93737122 126.33231018 -15.93797302 125.5271759 C-15.93521116 122.97295451 -15.90421148 120.41993567 -15.87272644 117.86592102 C-15.86525725 116.08374163 -15.85956752 114.30155397 -15.85557556 112.5193634 C-15.84037256 107.85030564 -15.8011374 103.18175313 -15.75675964 98.51289368 C-15.71569125 93.74001396 -15.69753993 88.96705186 -15.67741394 84.19404602 C-15.63463743 74.84486686 -15.56645147 65.49606111 -15.48210144 56.14717102 C-16.80210144 55.48717102 -18.12210144 54.82717102 -19.48210144 54.14717102 C-19.58120315 48.13322219 -19.6536806 42.11975187 -19.701828 36.10517883 C-19.72190564 34.06049822 -19.74917369 32.01587475 -19.78385925 29.97138977 C-19.83254663 27.02723565 -19.85510888 24.08384268 -19.87272644 21.13935852 C-19.89337158 20.22975372 -19.91401672 19.32014893 -19.93528748 18.38298035 C-19.93725483 12.78002833 -19.24117446 9.58260217 -15.48210144 5.14717102 C-10.41892041 0.57795887 -6.61719123 -0.00169159 0 0 Z "
     fill="#213561"
     transform="translate(97.48210144042969,111.85282897949219)"
     id="path6"
     style="fill:#1a2f5c;fill-opacity:1" />
  <path
     d="M0 0 C7.31080142 5.89474529 13.0623044 13.83758558 14.70361328 23.23925781 C15.8945039 34.64902078 13.41572618 45.42930341 6.12109375 54.44140625 C-1.79579896 62.41072871 -11.24926949 66.06654399 -22.2734375 66.59765625 C-31.83768619 66.49085943 -40.0459626 62.7013639 -46.90234375 56.1015625 C-55.01066987 47.37649569 -58.26761069 39.4547237 -58.2746582 27.45703125 C-57.84762088 17.65692528 -53.34485231 9.31047192 -46.2109375 2.59765625 C-32.95956067 -7.96274132 -14.31982459 -9.60991178 0 0 Z "
     fill="#18AFDD"
     transform="translate(283.6484375,154.77734375)"
     id="path7" />
  <path
     d="M0 0 C1.17410683 -0.00788544 1.17410683 -0.00788544 2.37193298 -0.01593018 C4.95063429 -0.02909769 7.52871465 -0.02040382 10.10742188 -0.01025391 C11.90433877 -0.01227558 13.70125486 -0.0151878 15.49816895 -0.01895142 C19.26074042 -0.02337036 23.02309796 -0.01695756 26.78564453 -0.00292969 C31.60437296 0.01416197 36.42260008 0.00431848 41.24131012 -0.01364708 C44.95082362 -0.02449653 48.66021861 -0.02103325 52.36973572 -0.0132637 C54.14631713 -0.01126491 55.92290937 -0.01370971 57.69947815 -0.02070236 C60.18405591 -0.02833601 62.66782602 -0.01668631 65.15234375 0 C65.88392197 -0.00607269 66.61550018 -0.01214539 67.36924744 -0.0184021 C71.78807234 0.0364735 74.55405328 0.69458403 78.07617188 3.38818359 C82.20891709 8.19110371 82.49430471 11.32525745 82.07617188 17.38818359 C83.06617188 17.38818359 84.05617188 17.38818359 85.07617188 17.38818359 C85.07617188 20.02818359 85.07617188 22.66818359 85.07617188 25.38818359 C80.45617187 25.38818359 75.83617187 25.38818359 71.07617188 25.38818359 C71.07617188 22.74818359 71.07617188 20.10818359 71.07617188 17.38818359 C72.06617188 17.38818359 73.05617188 17.38818359 74.07617188 17.38818359 C73.89152821 13.04634157 73.89152821 13.04634157 72.07617188 9.38818359 C69.64760152 9.28788503 67.24745575 9.25199935 64.81835938 9.25878906 C64.05904114 9.25703674 63.2997229 9.25528442 62.51739502 9.253479 C59.99529772 9.2490603 57.47326995 9.25199853 54.95117188 9.25537109 C53.20621731 9.25469806 51.46126284 9.25372804 49.71630859 9.25247192 C46.05435292 9.25099493 42.3924216 9.25314957 38.73046875 9.2578125 C34.02572695 9.26350979 29.32104219 9.2602308 24.61630249 9.25424004 C21.01163296 9.25063447 17.40697706 9.25177299 13.80230713 9.25436783 C12.06707757 9.25503711 10.33184679 9.25420863 8.59661865 9.25188828 C6.175707 9.24936183 3.75488901 9.25320221 1.33398438 9.25878906 C0.60979309 9.25676483 -0.11439819 9.2547406 -0.86053467 9.25265503 C-4.17536903 8.97827879 -4.17536903 8.97827879 -6.92382812 10.38818359 C-7.29143544 12.71636323 -7.62624393 15.05002209 -7.92382812 17.38818359 C-6.93382812 17.38818359 -5.94382813 17.38818359 -4.92382812 17.38818359 C-4.92382812 20.02818359 -4.92382812 22.66818359 -4.92382812 25.38818359 C-9.54382813 25.38818359 -14.16382813 25.38818359 -18.92382812 25.38818359 C-18.92382812 22.74818359 -18.92382812 20.10818359 -18.92382812 17.38818359 C-17.93382812 17.38818359 -16.94382813 17.38818359 -15.92382812 17.38818359 C-15.97603516 16.50066406 -15.97603516 16.50066406 -16.02929688 15.59521484 C-16.19731297 10.69074509 -16.25369547 7.29216599 -12.92382812 3.38818359 C-8.74717674 0.21621774 -5.07385129 -0.04211708 0 0 Z "
     fill="#213661"
     transform="translate(151.923828125,83.61181640625)"
     id="path8"
     style="fill:#1a2f5c;fill-opacity:1" />
  <path
     d="M0 0 C7.74522947 4.18503956 12.82498903 9.80224606 15.55859375 18.2265625 C16.9125906 25.68052456 16.57256531 32.64821361 12.9375 39.3125 C10.78402777 37.15902777 8.66627994 35.01195885 6.625 32.75 C3.47805904 29.89579774 0.88901942 28.78463469 -3.0625 27.3125 C-2.7015625 26.755625 -2.340625 26.19875 -1.96875 25.625 C1.3336781 20.19434046 2.87596435 16.67320282 1.9375 10.3125 C-0.09289501 6.46925231 -2.1805636 3.36129977 -6.0625 1.3125 C-12.08591524 -0.06992317 -15.54259468 0.12793924 -21.0625 3.3125 C-25.31855773 7.90456229 -26.39281309 10.87519116 -26.36328125 16.98828125 C-25.91700296 20.43679535 -24.16457972 22.61921036 -22.0625 25.3125 C-22.0625 25.9725 -22.0625 26.6325 -22.0625 27.3125 C-23.7421875 28.6015625 -23.7421875 28.6015625 -25.9375 29.9375 C-26.65679687 30.38351563 -27.37609375 30.82953125 -28.1171875 31.2890625 C-30.0625 32.3125 -30.0625 32.3125 -32.0625 32.3125 C-32.330625 32.910625 -32.59875 33.50875 -32.875 34.125 C-34.04743467 36.28474808 -35.25619282 37.67040256 -37.0625 39.3125 C-40.66532894 32.85743149 -41.06168184 26.59820092 -40.0625 19.3125 C-37.35748787 10.75687451 -32.82486219 4.82141995 -25.0625 0.3125 C-17.84261233 -3.27924244 -7.40768889 -3.11703434 0 0 Z "
     fill="#F7FCFD"
     transform="translate(274.0625,158.6875)"
     id="path9" />
  <path
     d="M0 0 C0.87223206 0.00045319 1.74446411 0.00090637 2.64312744 0.00137329 C3.55689651 -0.00198532 4.47066559 -0.00534393 5.41212463 -0.00880432 C8.44885599 -0.01834489 11.4855324 -0.02025897 14.52227783 -0.02133179 C16.62356082 -0.02454217 18.72484359 -0.02790607 20.8261261 -0.03141785 C25.23713703 -0.03741687 29.64812834 -0.03925695 34.05914307 -0.03866577 C39.72339676 -0.0385641 45.38752524 -0.05221848 51.05174923 -0.06943798 C55.3933419 -0.0805328 59.73490407 -0.08258576 64.07650948 -0.08205605 C66.16538487 -0.08323989 68.25426096 -0.08768412 70.34312248 -0.09538841 C73.2596207 -0.1051378 76.17584397 -0.10233037 79.09234619 -0.09628296 C79.96255402 -0.10190247 80.83276184 -0.10752197 81.7293396 -0.11331177 C87.70411884 -0.08167828 87.70411884 -0.08167828 89.93243408 2.14663696 C89.37687853 6.70219252 89.37687853 6.70219252 87.93243408 8.14663696 C85.0212286 8.25254798 82.13361903 8.29341356 79.22174072 8.29190063 C78.30797165 8.29525925 77.39420258 8.29861786 76.45274353 8.30207825 C73.41601217 8.31161882 70.37933577 8.3135329 67.34259033 8.31460571 C65.24130734 8.3178161 63.14002458 8.32118 61.03874207 8.32469177 C56.62773114 8.3306908 52.21673982 8.33253088 47.8057251 8.3319397 C42.14147141 8.33183802 36.47734292 8.34549241 30.81311893 8.36271191 C26.47152626 8.37380673 22.12996409 8.37585968 17.78835869 8.37532997 C15.69948329 8.37651382 13.6106072 8.38095805 11.52174568 8.38866234 C8.60524747 8.39841173 5.6890242 8.39560429 2.77252197 8.38955688 C1.90231415 8.39517639 1.03210632 8.4007959 0.13552856 8.40658569 C-5.83925067 8.37495221 -5.83925067 8.37495221 -8.06756592 6.14663696 C-7.3072638 -0.08784044 -6.09590811 0.03293446 0 0 Z "
     fill="#17AEDD"
     transform="translate(221.06756591796875,258.8533630371094)"
     id="path11" />
  <path
     d="M0 0 C0.69480469 -0.02449219 1.38960938 -0.04898438 2.10546875 -0.07421875 C7.28983014 -0.10350893 10.12794744 1.15252419 14.125 4.375 C18.08944659 8.44377413 18.08944659 8.44377413 18.2265625 12.03515625 C18.19304687 12.80730469 18.15953125 13.57945312 18.125 14.375 C16.5220947 15.18998562 14.91762722 16.00189927 13.3125 16.8125 C12.41917969 17.26496094 11.52585937 17.71742188 10.60546875 18.18359375 C5.12955785 20.81375568 0.11035762 21.20133669 -5.875 20.375 C-10.08362372 18.71191482 -13.97450899 16.66219892 -17.875 14.375 C-17.18100674 8.91456948 -15.7649653 6.35542961 -11.875 2.375 C-8.20332837 -0.14125048 -4.29941132 0.00788883 0 0 Z "
     fill="#FAFDFE"
     transform="translate(261.875,192.625)"
     id="path12" />
  <path
     d="M0 0 C1.25477646 -0.00315216 2.50955292 -0.00630432 3.80235291 -0.009552 C5.18277013 -0.00776203 6.56318704 -0.00571103 7.94360352 -0.00341797 C9.34985877 -0.00409112 10.75611392 -0.00506125 12.16236877 -0.00631714 C15.1139537 -0.00779405 18.06550842 -0.0056401 21.01708984 -0.00097656 C24.80475748 0.00471551 28.59235417 0.00144501 32.38001919 -0.00454903 C35.28559404 -0.00815928 38.19115202 -0.00701382 41.09672737 -0.00442123 C42.49340892 -0.00375298 43.890092 -0.00457685 45.28677177 -0.00690079 C47.23805589 -0.00943429 49.18934536 -0.00488958 51.140625 0 C52.2523558 0.00079559 53.36408661 0.00159119 54.50950623 0.00241089 C57.13500977 0.12939453 57.13500977 0.12939453 59.13500977 1.12939453 C59.17755333 3.12894199 59.17581759 5.12981089 59.13500977 7.12939453 C57.33238455 8.93201975 54.59123967 8.25708156 52.16235352 8.25878906 C50.88432861 8.26194122 49.60630371 8.26509338 48.28955078 8.26834106 C46.8838701 8.26655128 45.47818972 8.26450033 44.07250977 8.26220703 C42.64143863 8.26288011 41.21036761 8.26385018 39.77929688 8.2651062 C36.77643752 8.26658297 33.77360786 8.2644293 30.77075195 8.25976562 C26.91348405 8.25406834 23.05628573 8.25734745 19.19902039 8.26333809 C16.24287386 8.26694427 13.28674394 8.26580486 10.33059692 8.2632103 C8.90796907 8.26254119 7.48533974 8.2633689 6.06271362 8.26568985 C4.07769803 8.26821727 2.09267718 8.26368496 0.10766602 8.25878906 C-1.58990845 8.25759567 -1.58990845 8.25759567 -3.32177734 8.25637817 C-5.86499023 8.12939453 -5.86499023 8.12939453 -6.86499023 7.12939453 C-6.98999023 4.12939453 -6.98999023 4.12939453 -6.86499023 1.12939453 C-5.07605921 -0.65953649 -2.41555064 0.00172989 0 0 Z "
     fill="#14ADDD"
     transform="translate(235.864990234375,231.87060546875)"
     id="path13" />
  <path
     d="M0 0 C1.9375 1.6875 1.9375 1.6875 3 4 C2.87177883 7.14141856 2.4995896 9.21117432 0.8125 11.875 C-1.94344924 13.58558918 -3.82625484 13.45339217 -7 13 C-9.4375 11.4375 -9.4375 11.4375 -11 9 C-11 5.18846501 -10.80074051 2.94902579 -8.3125 0 C-5.10029355 -1.38906225 -3.3063364 -1.05521374 0 0 Z "
     fill="#F4FBFD"
     transform="translate(266,167)"
     id="path14" />
</svg>
