<?xml version="1.0" encoding="UTF-8" standalone="no"?>
<svg
   version="1.1"
   width="381"
   height="389"
   id="svg13"
   sodipodi:docname="Pacientes.svg"
   inkscape:version="1.4-rc1 (61ec3f2, 2024-09-26)"
   xmlns:inkscape="http://www.inkscape.org/namespaces/inkscape"
   xmlns:sodipodi="http://sodipodi.sourceforge.net/DTD/sodipodi-0.dtd"
   xmlns:xlink="http://www.w3.org/1999/xlink"
   xmlns="http://www.w3.org/2000/svg"
   xmlns:svg="http://www.w3.org/2000/svg">
  <defs
     id="defs13">
    <linearGradient
       id="linearGradient14"
       inkscape:collect="always">
      <stop
         style="stop-color:#16afdd;stop-opacity:1;"
         offset="0"
         id="stop14" />
      <stop
         style="stop-color:#16afdd;stop-opacity:0;"
         offset="1"
         id="stop15" />
    </linearGradient>
    <linearGradient
       inkscape:collect="always"
       xlink:href="#linearGradient14"
       id="linearGradient15"
       x1="253.83197"
       y1="184.26627"
       x2="252.17564"
       y2="178.64659"
       gradientUnits="userSpaceOnUse" />
  </defs>
  <sodipodi:namedview
     id="namedview13"
     pagecolor="#505050"
     bordercolor="#ffffff"
     borderopacity="1"
     inkscape:showpageshadow="0"
     inkscape:pageopacity="0"
     inkscape:pagecheckerboard="1"
     inkscape:deskcolor="#505050"
     showgrid="false"
     inkscape:zoom="5.9767792"
     inkscape:cx="305.43206"
     inkscape:cy="245.44992"
     inkscape:window-width="1920"
     inkscape:window-height="1017"
     inkscape:window-x="-8"
     inkscape:window-y="-8"
     inkscape:window-maximized="1"
     inkscape:current-layer="svg13" />
  <path
     d="M0 0 C0.87173859 -0.00428513 1.74347717 -0.00857025 2.64163208 -0.01298523 C4.48585136 -0.01872786 6.33009329 -0.01922928 8.17431641 -0.01489258 C10.99030446 -0.01173836 13.80523605 -0.03517213 16.62109375 -0.06054688 C18.41406118 -0.06282051 20.20703142 -0.06352307 22 -0.0625 C22.83973358 -0.07170975 23.67946716 -0.08091949 24.54464722 -0.09040833 C30.66828694 -0.04217319 33.97233405 1.19869411 38.4453125 5.55078125 C40.56086261 8.9983444 40.44448863 11.32691057 40.1328125 15.30078125 C40.8753125 15.21828125 41.6178125 15.13578125 42.3828125 15.05078125 C43.2903125 15.13328125 44.1978125 15.21578125 45.1328125 15.30078125 C45.67437988 15.95626953 46.21594727 16.61175781 46.77392578 17.28710938 C50.15524361 20.17358313 53.38642849 19.83013079 57.625 19.76953125 C58.86033981 19.78010559 58.86033981 19.78010559 60.12063599 19.79089355 C63.63543904 19.82034477 67.14968619 19.80377783 70.66455078 19.79150391 C73.23503451 19.78911631 75.8046271 19.81008021 78.375 19.83203125 C79.55653152 19.81505188 79.55653152 19.81505188 80.76193237 19.79772949 C85.98774557 19.84532842 89.03383705 20.76940403 93.1328125 24.30078125 C95.8223421 28.07923326 95.39985972 32.29614467 95.35986328 36.74121094 C95.36015533 37.59035568 95.36044739 38.43950043 95.36074829 39.31437683 C95.35935648 42.11724108 95.34380226 44.91983852 95.328125 47.72265625 C95.32439434 49.66749934 95.32154762 51.6123443 95.31954956 53.55718994 C95.31191727 58.673291 95.2922722 63.78927832 95.2701416 68.90533447 C95.2496745 74.12697816 95.24054599 79.34864025 95.23046875 84.5703125 C95.20902598 94.81385203 95.17489485 105.05730718 95.1328125 115.30078125 C98.12143707 115.64009857 98.12143707 115.64009857 101.11006165 115.97941589 C107.15485355 116.93978464 113.91850039 120.96940491 118.1328125 125.30078125 C124.23794723 134.29782191 127.18026357 141.3294027 126.1328125 152.30078125 C124.38859649 160.52509093 120.53886475 166.85673002 114.1328125 172.30078125 C109.66674818 175.10380661 105.25024815 177.07324277 100.1328125 178.30078125 C101.92912109 178.48640625 101.92912109 178.48640625 103.76171875 178.67578125 C119.8380813 180.60069667 133.38547089 185.62980347 143.92480469 198.62304688 C152.2090063 210.1285104 155.4793644 222.07302595 155.3828125 236.11328125 C155.39054688 237.25732422 155.39828125 238.40136719 155.40625 239.58007812 C155.40367187 240.66998047 155.40109375 241.75988281 155.3984375 242.8828125 C155.39618164 243.87514893 155.39392578 244.86748535 155.39160156 245.88989258 C155.1328125 248.30078125 155.1328125 248.30078125 153.1328125 250.30078125 C151.06507111 250.55246353 151.06507111 250.55246353 148.46398926 250.55474854 C146.98751671 250.56320801 146.98751671 250.56320801 145.48121643 250.57183838 C144.39751266 250.56778992 143.3138089 250.56374146 142.19726562 250.55957031 C141.0590184 250.56307495 139.92077118 250.56657959 138.74803162 250.57019043 C134.96998062 250.57902274 131.19211553 250.57315322 127.4140625 250.56640625 C124.79854293 250.56775247 122.1830236 250.56969263 119.56750488 250.57220459 C114.07965057 250.57584578 108.59185005 250.57104116 103.10400391 250.56152344 C96.75443795 250.55063856 90.40500041 250.55416403 84.05543756 250.56517625 C77.95360258 250.57533628 71.85182466 250.57427302 65.74998474 250.56841278 C63.15034467 250.56707474 60.55070134 250.56872937 57.95106506 250.57337189 C54.32340705 250.5784279 50.6959987 250.57073974 47.06835938 250.55957031 C45.44280373 250.56564301 45.44280373 250.56564301 43.78440857 250.57183838 C42.80009354 250.56619873 41.8157785 250.56055908 40.80163574 250.55474854 C39.94327873 250.55399448 39.08492172 250.55324043 38.20055389 250.55246353 C36.1328125 250.30078125 36.1328125 250.30078125 34.1328125 248.30078125 C33.9375 245.48046875 33.9375 245.48046875 34.0078125 242.17578125 C34.02585937 241.08007812 34.04390625 239.984375 34.0625 238.85546875 C34.08570313 238.01242187 34.10890625 237.169375 34.1328125 236.30078125 C32.9183847 236.31188431 31.70395691 236.32298737 30.45272827 236.33442688 C19.00551937 236.43580401 7.5584016 236.51074745 -3.88915443 236.55984211 C-9.77443787 236.58593084 -15.65935879 236.62131665 -21.54443359 236.67797852 C-27.22435441 236.73232264 -32.90392663 236.76220723 -38.58408737 236.77516747 C-40.75064964 236.78440292 -42.91719293 236.80243774 -45.08360672 236.82943153 C-48.11947032 236.86575288 -51.15389533 236.87072519 -54.18994141 236.8684082 C-55.08474213 236.88638458 -55.97954285 236.90436096 -56.90145874 236.92288208 C-61.19923058 236.88741291 -63.99826814 236.64371654 -67.40951538 233.89030457 C-71.2864125 229.80541651 -71.0176297 226.82322551 -71.02108765 221.4319458 C-71.0254699 220.60959277 -71.02985215 219.78723974 -71.0343672 218.93996692 C-71.04778271 216.16863454 -71.05394022 213.39733399 -71.06005859 210.62597656 C-71.06795739 208.64529272 -71.0762262 206.66461031 -71.08483887 204.68392944 C-71.11108447 198.16560241 -71.12636889 191.64726887 -71.140625 185.12890625 C-71.14598361 182.88723496 -71.15136111 180.64556372 -71.15675735 178.40389252 C-71.17838967 169.08086835 -71.19712732 159.75784593 -71.20837975 150.43480301 C-71.2246245 137.06217958 -71.25781121 123.68984647 -71.31478059 110.31733251 C-71.35344899 100.92109775 -71.37300876 91.52494074 -71.37830031 82.12862849 C-71.38195796 76.51348968 -71.39402341 70.89866034 -71.42640305 65.28360748 C-71.45642896 60.00090553 -71.46281495 54.71870118 -71.45101929 49.43593216 C-71.4507981 47.49691287 -71.45914075 45.55787086 -71.47667313 43.61893082 C-71.49931143 40.97120303 -71.49109522 38.32528774 -71.47518921 35.67755127 C-71.4890713 34.910421 -71.50295338 34.14329073 -71.51725614 33.35291409 C-71.43151406 27.55921847 -69.84836672 25.20801853 -65.8671875 21.30078125 C-62.53563499 19.635005 -58.80182691 20.18070269 -55.140625 20.203125 C-53.84640121 20.20524742 -53.84640121 20.20524742 -52.52603149 20.20741272 C-49.7647152 20.21301937 -47.00347938 20.22557298 -44.2421875 20.23828125 C-42.372397 20.24329539 -40.50260524 20.24785845 -38.6328125 20.25195312 C-34.04423973 20.26299096 -29.45572727 20.28026005 -24.8671875 20.30078125 C-24.5578125 19.66140625 -24.2484375 19.02203125 -23.9296875 18.36328125 C-22.8671875 16.30078125 -22.8671875 16.30078125 -21.8671875 15.30078125 C-19.86760386 15.25997342 -17.86673496 15.25823769 -15.8671875 15.30078125 C-15.9496875 14.08390625 -16.0321875 12.86703125 -16.1171875 11.61328125 C-16.1230825 8.28260673 -15.91430946 7.37552643 -14.0546875 4.42578125 C-9.53009709 0.03046485 -6.0143933 -0.00649642 0 0 Z "
     fill="#FCFDFD"
     transform="translate(162.8671875,68.69921875)"
     id="path2" />
  <path
     d="m 0,0 2.6416321,-0.01298523 c 1.8442193,-0.0057426 3.6884612,-0.0062441 5.5326843,-0.0019074 2.8159876,0.0031542 5.6309196,-0.02027955 8.4467776,-0.0456543 C 18.414061,-0.06282051 20.207031,-0.06352307 22,-0.0625 l 2.544647,-0.02790833 c 6.12364,0.04823514 9.427687,1.28910243 13.900665,5.64118953 2.115551,3.4475632 1.999177,5.7761298 1.6875,9.7499998 l 2.25,-0.25 2.75,0.25 1.641114,1.986328 c 3.381318,2.886474 6.612502,2.543022 10.851074,2.482422 l 2.495636,0.02136 c 3.514803,0.02945 7.02905,0.01288 10.543915,6.1e-4 2.570484,-0.0024 5.140076,0.01858 7.710449,0.04053 l 2.386932,-0.0343 c 5.225814,0.0476 8.271905,0.971675 12.37088,4.503052 2.68953,3.778452 2.267048,7.995364 2.227051,12.44043 l 8.85e-4,2.573166 c -0.0014,2.802864 -0.01695,5.605462 -0.03262,8.408279 -0.0037,1.944843 -0.0066,3.889688 -0.0086,5.834534 -0.0076,5.116101 -0.02728,10.232088 -0.04941,15.348144 -0.02047,5.221644 -0.0296,10.443306 -0.03967,15.664978 -0.02144,10.24354 -0.05557,20.486998 -0.09766,30.730468 l 5.977248,0.67864 c 6.04479,0.96036 12.80844,4.98998 17.02275,9.32136 6.10514,8.99704 9.04745,16.02862 8,27 -1.74421,8.22431 -5.59395,14.55595 -12,20 -10.67867,6.50469 -16.79799,7.17629 -26.999998,6 -8.351732,-2.79055 -15.941712,-7.46506 -20.273437,-15.30469 -3.931129,-8.5035 -5.306667,-17.21728 -2.601563,-26.38281 3.487778,-9.01679 9.674542,-14.44304 17.875,-19.3125 l 3,-1 1,-87.999999 h -37 v 14 c -5.626793,4.501435 -5.626793,4.501435 -11.455078,4.533448 l -3.893432,0.04799 c -1.39425,-0.0038 -2.788498,-0.0089 -4.18274,-0.01503 -1.438195,0.0052 -2.876388,0.01152 -4.314575,0.01878 -3.009401,0.01039 -6.018329,0.0059 -9.02771,-0.0088 -3.850561,-0.0172 -7.6996308,0.0063 -11.5500256,0.04149 -2.9684049,0.02199 -5.9364539,0.02053 -8.9049149,0.01224 -1.4193383,-8.19e-4 -2.8387031,0.006 -4.257965,0.02077 -1.9860945,0.01748 -3.9724045,-4.35e-4 -5.9584805,-0.01981 l -3.4198,-0.0029 c -3.035278,-0.628189 -3.035278,-0.628189 -5.938721,-2.355133 -2.096557,-3.273056 -2.096557,-3.273056 -2.096557,-16.273056 l -36,1 V 227.30078 l 95.999999,1 1,-10 c 4.037577,-14.26148 13.32433,-25.38711 26.023438,-32.75391 10.840789,-5.66615 19.66957,-6.56741 31.789062,-6.49609 l 3.947266,-0.0234 c 10.515002,0.0211 20.403982,0.51448 29.740232,5.71094 l 1.91626,1.06055 c 13.61762,7.91822 20.38847,19.36467 25.78296,33.68554 1.16454,5.55004 1.08967,10.97457 1.05078,16.62891 l 0.0234,3.4668 -0.008,3.30273 -0.007,3.00708 c -0.25879,2.41089 -0.25879,2.41089 -2.25879,4.41089 -2.06774,0.25168 -2.06774,0.25168 -4.66882,0.25397 l -2.98277,0.0171 -3.28395,-0.0123 -3.44924,0.0106 c -3.77805,0.009 -7.55591,0.003 -11.33397,-0.004 -2.61552,0.001 -5.23104,0.003 -7.84656,0.006 -5.48785,0.004 -10.97565,-0.001 -16.4635,-0.0107 -6.349562,-0.0109 -12.699,-0.007 -19.048562,0.004 -6.101835,0.0102 -12.203613,0.009 -18.305453,0.003 -2.59964,-0.001 -5.199284,3.2e-4 -7.79892,0.005 -3.627658,0.005 -7.255066,-0.003 -10.882706,-0.0138 l -3.28395,0.0123 -2.982773,-0.0171 -2.601082,-0.002 c -2.067742,-0.25168 -2.067742,-0.25168 -4.067742,-2.25168 -0.195312,-2.82031 -0.195312,-2.82031 -0.125,-6.125 l 0.05469,-3.32031 0.07031,-2.55469 -3.680084,0.0336 c -11.447209,0.10137 -22.8943264,0.17632 -34.3418824,0.22541 -5.8852835,0.0261 -11.7702046,0.0615 -17.6552796,0.11814 -5.67992,0.0543 -11.359493,0.0842 -17.039653,0.0972 -2.166563,0.009 -4.333106,0.0273 -6.49952,0.0543 -3.035863,0.0363 -6.070288,0.0413 -9.106334,0.039 l -2.711518,0.0545 c -4.297772,-0.0355 -7.096809,-0.27916 -10.508056,-3.03258 -3.876897,-4.08488 -3.608115,-7.06707 -3.611573,-12.45835 l -0.01328,-2.49198 c -0.01342,-2.77134 -0.01957,-5.54264 -0.02569,-8.31399 -0.0079,-1.98069 -0.01617,-3.96137 -0.02478,-5.94205 -0.02625,-6.51833 -0.04153,-13.03666 -0.05579,-19.55502 -0.0054,-2.24168 -0.01074,-4.48335 -0.01613,-6.72502 -0.02163,-9.32302 -0.04037,-18.64604 -0.05162,-27.96909 -0.01624,-13.37262 -0.04943,-26.74495 -0.106401,-40.11747 -0.03867,-9.39623 -0.05823,-18.792389 -0.06352,-28.188702 -0.0037,-5.615138 -0.01572,-11.229968 -0.0481,-16.845021 -0.03003,-5.282701 -0.03641,-10.564906 -0.02462,-15.847675 2.21e-4,-1.939019 -0.0081,-3.878061 -0.02565,-5.817001 -0.02264,-2.647728 -0.01442,-5.293643 0.0015,-7.94138 l -0.04207,-2.324637 c 0.08574,-5.793696 1.668889,-8.144895 5.650069,-12.052133 3.331552,-1.665776 7.06536,-1.120078 10.726562,-1.097656 l 2.614594,0.0043 c 2.761316,0.0056 5.522552,0.01816 8.283844,0.03087 1.86979,0.005 3.739582,0.0096 5.609375,0.01367 4.588572,0.01104 9.177085,0.02831 13.765625,0.04883 l 0.9375,-1.9375 c 1.0625,-2.0625 1.0625,-2.0625 2.0625,-3.0625 1.999583,-0.04081 4.000452,-0.04254 5.999999,0 l -0.249999,-3.6875 c -0.0059,-3.3306743 0.202878,-4.2377546 2.062499,-7.1874998 C -9.5300971,0.03046485 -6.0143933,-0.00649642 0,0 Z"
     fill="#1d325e"
     transform="translate(162.86719,68.699219)"
     id="path3"
     sodipodi:nodetypes="ccccccccccccccccccccccccccccccccccccccccccccccccccccccccccccccccccccccccccccccccccccccccccccccccccccccccccccccccccc" />
  <path
     d="M 0,0 3.5234375,-0.00976562 C 17.346495,0.07623756 30.473953,3.3601801 40.875,13.0625 c 4.119263,4.560298 6.919682,9.703523 9.5,15.25 l 1.035156,2.070312 c 3.266472,7.748376 2.20466,16.695997 1.964844,24.929688 h -15 l -1,-24 h -5 c -5.676462,5.676462 -1.651298,15.979847 -2,24 h -60 l -1,-24 h -5 c -1.683007,1.683007 -1.228091,3.820087 -1.316406,6.128906 l -0.126953,3.134766 -0.119141,3.298828 -0.130859,3.310547 c -0.106461,2.708821 -0.207089,5.41787 -0.306641,8.126953 h -14 C -52.23268,39.02331 -50.823476,27.31903 -40.035156,14.410156 -29.02613,2.5722151 -15.737243,-0.45451609 0,0 Z"
     fill="#fcfefe"
     transform="translate(256.625,255.6875)"
     id="path4"
     sodipodi:nodetypes="ccccccccccccccccccccc" />
  <path
     d="M 0,0 3.8789063,0.00390625 C 14.2733,0.09965809 24.150361,0.67816389 33.375,5.8125 l 1.91626,1.0605469 C 50.091966,14.140566 55.679731,26.237721 61.074219,40.558594 62.238761,46.108629 62.163884,51.533161 62.125,57.1875 l 0.02344,3.466797 -0.0078,3.302734 -0.0068,3.00708 C 61.875,69.375 61.875,69.375 59.875,71.375 c -2.067741,0.251682 -2.067741,0.251682 -4.668823,0.253967 l -2.982773,0.01709 -3.283951,-0.01227 -3.449234,0.01062 c -3.778051,0.0088 -7.555916,0.003 -11.333969,-0.0038 -2.61552,0.0013 -5.231039,0.0033 -7.846558,0.0058 -5.487854,0.0036 -10.975654,-0.0012 -16.4635006,-0.01068 -6.3495659,-0.01088 -12.6990035,-0.0074 -19.0485663,0.0037 -6.1018351,0.01016 -12.2036131,0.0091 -18.3054531,0.0032 -2.59964,-0.0013 -5.199283,3.16e-4 -7.798919,0.005 -3.627658,0.0051 -7.255067,-0.0026 -10.882706,-0.0138 l -3.283951,0.01227 -2.982773,-0.01709 -2.601082,-0.0023 C -57.125,71.375 -57.125,71.375 -59.125,69.375 -59.61701,65.271058 -59.495447,61.129984 -59.5,57 l -0.07422,-3.425781 C -60.369032,40.963153 -56.579473,31.003973 -49.125,21.375 l 1.449219,-2.082031 C -35.948343,4.3161144 -18.197401,-0.76438608 0,0 Z m -35.125,18.375 -2.082031,1.671875 c -6.327274,6.780296 -11.257907,15.395632 -13.081398,24.411782 -0.747443,7.286297 -0.609842,2.445335 -0.515942,4.044933 l -0.324863,3.060536 -0.05827,2.560874 0.01367,2.691406 c 0.01175,2.186227 0.02969,4.372419 0.04883,6.558594 h 14 l 0.183594,-4.996094 c 0.08438,-2.147145 0.169034,-4.29428 0.253906,-6.441406 l 0.119141,-3.298828 0.0678,-4.436165 0.05193,-1.661808 C -36.7757,41.321472 -35.888382,40.256691 -35.125,39.375 h 5 l 1,24 h 60 C 30.104749,53.639192 28.639147,42.512682 31.638382,40.315845 L 32.875,39.375 h 5 l 1,24 h 15 C 54.548765,46.530865 52.663129,34.101716 40.878906,21.1875 27.287159,8.0197152 11.277393,7.9028554 -6.53125,8.0976563 -17.667119,8.9949134 -26.47353,11.321992 -35.125,18.375 Z"
     fill="#17aedd"
     transform="translate(256.125,247.625)"
     id="path5"
     sodipodi:nodetypes="cccccccccccccccccccccccccccccccccccccccccccccccccccccccc" />
  <path
     d="M0 0 C0.88494141 -0.01224609 1.76988281 -0.02449219 2.68164062 -0.03710938 C3.52791016 -0.03904297 4.37417969 -0.04097656 5.24609375 -0.04296875 C6.02525146 -0.04707764 6.80440918 -0.05118652 7.60717773 -0.05541992 C9.5625 0.1875 9.5625 0.1875 11.5625 2.1875 C11.7578125 5.2265625 11.7578125 5.2265625 11.6875 8.8125 C11.66945312 10.00101563 11.65140625 11.18953125 11.6328125 12.4140625 C11.60960937 13.32929688 11.58640625 14.24453125 11.5625 15.1875 C12.47773438 15.16429687 13.39296875 15.14109375 14.3359375 15.1171875 C15.52445313 15.09914062 16.71296875 15.08109375 17.9375 15.0625 C19.12085938 15.03929687 20.30421875 15.01609375 21.5234375 14.9921875 C24.5625 15.1875 24.5625 15.1875 26.5625 17.1875 C26.82128906 19.03515625 26.82128906 19.03515625 26.828125 21.25 C26.83199219 22.44496094 26.83199219 22.44496094 26.8359375 23.6640625 C26.82820313 24.49679688 26.82046875 25.32953125 26.8125 26.1875 C26.82410156 27.43660156 26.82410156 27.43660156 26.8359375 28.7109375 C26.83335937 29.50757813 26.83078125 30.30421875 26.828125 31.125 C26.82586914 31.85589844 26.82361328 32.58679688 26.82128906 33.33984375 C26.5625 35.1875 26.5625 35.1875 24.5625 37.1875 C21.5234375 37.3828125 21.5234375 37.3828125 17.9375 37.3125 C16.15472656 37.28542969 16.15472656 37.28542969 14.3359375 37.2578125 C12.96308594 37.22300781 12.96308594 37.22300781 11.5625 37.1875 C11.58570313 38.10273438 11.60890625 39.01796875 11.6328125 39.9609375 C11.65085938 41.14945313 11.66890625 42.33796875 11.6875 43.5625 C11.71070313 44.74585938 11.73390625 45.92921875 11.7578125 47.1484375 C11.5625 50.1875 11.5625 50.1875 9.5625 52.1875 C6.60397891 52.63110072 3.61301549 52.51162652 0.625 52.5 C-0.19935547 52.51611328 -1.02371094 52.53222656 -1.87304688 52.54882812 C-3.06317383 52.54979492 -3.06317383 52.54979492 -4.27734375 52.55078125 C-5.00300537 52.55376221 -5.72866699 52.55674316 -6.47631836 52.55981445 C-9.00887595 52.0790289 -9.89471444 51.22239644 -11.4375 49.1875 C-11.73046875 46.26953125 -11.73046875 46.26953125 -11.625 43 C-11.59792969 41.91332031 -11.57085937 40.82664063 -11.54296875 39.70703125 C-11.50816406 38.87558594 -11.47335938 38.04414063 -11.4375 37.1875 C-12.82775391 37.20490234 -12.82775391 37.20490234 -14.24609375 37.22265625 C-15.44363281 37.23167969 -16.64117187 37.24070313 -17.875 37.25 C-19.06996094 37.26160156 -20.26492187 37.27320313 -21.49609375 37.28515625 C-24.4375 37.1875 -24.4375 37.1875 -25.4375 36.1875 C-25.53630797 34.71097336 -25.56829245 33.22982764 -25.5703125 31.75 C-25.57160156 30.85539062 -25.57289063 29.96078125 -25.57421875 29.0390625 C-25.56841797 27.62753906 -25.56841797 27.62753906 -25.5625 26.1875 C-25.56636719 25.24648437 -25.57023438 24.30546875 -25.57421875 23.3359375 C-25.57292969 22.44132812 -25.57164062 21.54671875 -25.5703125 20.625 C-25.56862061 19.38556641 -25.56862061 19.38556641 -25.56689453 18.12109375 C-25.4375 16.1875 -25.4375 16.1875 -24.4375 15.1875 C-22.08436445 15.11478259 -19.72916332 15.10379132 -17.375 15.125 C-16.08464844 15.13402344 -14.79429687 15.14304688 -13.46484375 15.15234375 C-12.46582031 15.16394531 -11.46679688 15.17554688 -10.4375 15.1875 C-10.44910156 14.18847656 -10.46070313 13.18945312 -10.47265625 12.16015625 C-10.48167969 10.86980469 -10.49070313 9.57945312 -10.5 8.25 C-10.51160156 6.96222656 -10.52320313 5.67445313 -10.53515625 4.34765625 C-10.3416247 -1.91502477 -5.10513667 0.00370206 0 0 Z "
     fill="#18AFDD"
     transform="translate(174.4375,127.8125)"
     id="path6" />
  <path
     d="M0 0 C2.81385206 -0.29167512 5.40426945 -0.39597908 8.21875 -0.36328125 C9.03243042 -0.36377975 9.84611084 -0.36427826 10.68444824 -0.36479187 C12.40603068 -0.36244974 14.12761643 -0.35271296 15.84912109 -0.33618164 C18.48956813 -0.31259319 21.1290057 -0.31561877 23.76953125 -0.32226562 C25.44011021 -0.31668889 27.1106849 -0.30957903 28.78125 -0.30078125 C29.57398315 -0.30169266 30.36671631 -0.30260406 31.18347168 -0.30354309 C36.76897653 -0.23102347 36.76897653 -0.23102347 39 2 C39.37890625 4.56640625 39.37890625 4.56640625 39.5625 7.5625 C39.49797212 11.09416808 39.49797212 11.09416808 41 14 C43.31 14.33 45.62 14.66 48 15 C48 19.95 48 24.9 48 30 C28.53 30 9.06 30 -11 30 C-11 25.05 -11 20.1 -11 15 C-7.535 14.505 -7.535 14.505 -4 14 C-2.00022142 12.00022142 -2.56467193 8.15670096 -2.37890625 5.4453125 C-2 3 -2 3 0 0 Z "
     fill="#FCFCFD"
     transform="translate(156,77)"
     id="path8" />
  <path
     d="M0 0 C0.9170018 -0.00563965 1.8340036 -0.0112793 2.77879333 -0.01708984 C4.29214012 -0.01101715 4.29214012 -0.01101715 5.83605957 -0.00482178 C7.42638756 -0.01007874 7.42638756 -0.01007874 9.04884338 -0.01544189 C12.56717399 -0.0242727 16.0853049 -0.01840523 19.6036377 -0.01165771 C22.03979532 -0.01300398 24.47595268 -0.01494418 26.91210938 -0.01745605 C32.02334139 -0.02040915 37.13450362 -0.01610368 42.24572754 -0.0067749 C48.81012273 0.00461967 55.3743544 -0.0019388 61.93874359 -0.01391983 C66.97089885 -0.0211334 72.0030151 -0.01885281 77.03517151 -0.01366425 C79.45618204 -0.01232636 81.87719607 -0.0139803 84.29820251 -0.01862335 C87.67680295 -0.02368029 91.05513544 -0.01598995 94.43371582 -0.00482178 C95.44261368 -0.00887024 96.45151154 -0.0129187 97.49098206 -0.01708984 C98.40798386 -0.0114502 99.32498566 -0.00581055 100.26977539 0 C101.46881878 0.00113108 101.46881878 0.00113108 102.69208527 0.002285 C104.6348877 0.25396729 104.6348877 0.25396729 106.6348877 2.25396729 C106.07933214 6.80952284 106.07933214 6.80952284 104.6348877 8.25396729 C103.2077515 8.3516693 101.7758134 8.38028423 100.34533691 8.38095093 C99.41985046 8.38377075 98.49436401 8.38659058 97.54083252 8.38949585 C96.00571014 8.3864595 96.00571014 8.3864595 94.4395752 8.38336182 C93.3681427 8.38511414 92.29671021 8.38686646 91.19281006 8.38867188 C87.63181972 8.39309282 84.07087858 8.39015154 80.5098877 8.38677979 C78.04748525 8.38745275 75.58508288 8.38842272 73.12268066 8.38967896 C67.95421722 8.39115626 62.78577102 8.38900033 57.61730957 8.38433838 C50.97548042 8.37864108 44.33369168 8.38191991 37.69186401 8.38791084 C32.60485527 8.39151558 27.51785619 8.39037827 22.43084717 8.38778305 C19.9810994 8.38711354 17.53135077 8.38794304 15.081604 8.3902626 C11.66444559 8.3927877 8.24735363 8.38895054 4.8302002 8.38336182 C3.80678528 8.38538605 2.78337036 8.38741028 1.72894287 8.38949585 C0.3407132 8.38526611 0.3407132 8.38526611 -1.07556152 8.38095093 C-1.88451874 8.3805739 -2.69347595 8.38019688 -3.52694702 8.37980843 C-5.3651123 8.25396729 -5.3651123 8.25396729 -6.3651123 7.25396729 C-6.5526123 4.81646729 -6.5526123 4.81646729 -6.3651123 2.25396729 C-3.93091036 -0.18023466 -3.33392182 0.00314494 0 0 Z "
     fill="#213560"
     transform="translate(118.3651123046875,222.74603271484375)"
     id="path10" />
  <path
     d="M0 0 C0.92833649 0.00045319 1.85667297 0.00090637 2.81314087 0.00137329 C3.78543137 -0.00198532 4.75772186 -0.00534393 5.75947571 -0.00880432 C8.99099994 -0.01834566 12.22247254 -0.02025901 15.45401001 -0.02133179 C17.68981447 -0.0245421 19.92561872 -0.027906 22.16142273 -0.03141785 C26.85490405 -0.03741706 31.54836692 -0.03925693 36.24185181 -0.03866577 C42.26930734 -0.03856409 48.29664522 -0.05221879 54.32407284 -0.06943798 C58.943604 -0.08053187 63.56310649 -0.08258579 68.18264961 -0.08205605 C70.40549691 -0.08324002 72.62834486 -0.08768496 74.85117912 -0.09538841 C77.95447003 -0.10513596 81.05750246 -0.10233108 84.16079712 -0.09628296 C85.08710938 -0.10190247 86.01342163 -0.10752197 86.96780396 -0.11331177 C87.81052353 -0.10911728 88.6532431 -0.10492279 89.52149963 -0.1006012 C90.25579162 -0.10114596 90.9900836 -0.10169073 91.74662685 -0.10225201 C93.55166626 0.14663696 93.55166626 0.14663696 95.55166626 2.14663696 C94.9961107 6.70219252 94.9961107 6.70219252 93.55166626 8.14663696 C90.45732388 8.25264098 87.38517795 8.29341151 84.29019165 8.29190063 C82.83175591 8.29693855 82.83175591 8.29693855 81.34385681 8.30207825 C78.11233258 8.31161959 74.88085997 8.31353294 71.64932251 8.31460571 C69.41351805 8.31781603 67.1777138 8.32117992 64.94190979 8.32469177 C60.24842847 8.33069098 55.55496559 8.33253086 50.86148071 8.3319397 C44.83402518 8.33183802 38.8066873 8.34549272 32.77925968 8.36271191 C28.15972852 8.37380579 23.54022603 8.37585971 18.92068291 8.37532997 C16.69783561 8.37651394 14.47498766 8.38095889 12.2521534 8.38866234 C9.14886249 8.39840988 6.04583006 8.395605 2.9425354 8.38955688 C1.55306702 8.39798615 1.55306702 8.39798615 0.13552856 8.40658569 C-0.70719101 8.4023912 -1.54991058 8.39819672 -2.41816711 8.39387512 C-3.1524591 8.39441989 -3.88675108 8.39496466 -4.64329433 8.39552593 C-6.44833374 8.14663696 -6.44833374 8.14663696 -8.44833374 6.14663696 C-7.6647312 -0.27890388 -6.25719649 0.03177384 0 0 Z "
     fill="#192E5B"
     transform="translate(120.44833374023438,250.85336303710938)"
     id="path11" />
  <path
     d="M0 0 C1.13465195 -0.00637985 2.26930389 -0.0127597 3.43833923 -0.01933289 C4.67370926 -0.02044571 5.90907928 -0.02155853 7.18188477 -0.02270508 C9.07040916 -0.02769768 9.07040916 -0.02769768 10.99708557 -0.03279114 C13.66622437 -0.03786576 16.33526142 -0.04063047 19.00439453 -0.04003906 C22.42891817 -0.03993743 25.85323452 -0.05358833 29.27770901 -0.07081127 C32.53742665 -0.08458749 35.79714193 -0.08401959 39.05688477 -0.08520508 C40.29023056 -0.09239059 41.52357635 -0.09957611 42.79429626 -0.10697937 C44.50100243 -0.10236443 44.50100243 -0.10236443 46.2421875 -0.09765625 C47.74989967 -0.09979378 47.74989967 -0.09979378 49.28807068 -0.10197449 C51.68579102 0.14526367 51.68579102 0.14526367 53.68579102 2.14526367 C53.43579102 4.70776367 53.43579102 4.70776367 52.68579102 7.14526367 C50.12781009 8.42425413 48.30552245 8.27923358 45.44165039 8.29052734 C44.34711548 8.2969072 43.25258057 8.30328705 42.12487793 8.30986023 C40.93841675 8.31097305 39.75195557 8.31208588 38.52954102 8.31323242 C37.31633179 8.31656082 36.10312256 8.31988922 34.85314941 8.32331848 C32.28418355 8.32838843 29.71521109 8.33072679 27.14624023 8.33056641 C23.20228314 8.33275452 19.25860489 8.35091432 15.31469727 8.36987305 C12.82381281 8.37280654 10.33292702 8.37479163 7.84204102 8.37573242 C6.65557983 8.38291794 5.46911865 8.39010345 4.2467041 8.39750671 C2.60490173 8.39289177 2.60490173 8.39289177 0.92993164 8.38818359 C-0.03666382 8.38960861 -1.00325928 8.39103363 -1.99914551 8.39250183 C-4.31420898 8.14526367 -4.31420898 8.14526367 -6.31420898 6.14526367 C-6.50170898 3.58276367 -6.50170898 3.58276367 -6.31420898 1.14526367 C-4.59856065 -0.57038467 -2.34204807 0.00888879 0 0 Z "
     fill="#253963"
     transform="translate(151.314208984375,195.854736328125)"
     id="path12" />
  <path
     d="M0 0 C1.98 0 3.96 0 6 0 C6.06058594 0.92683594 6.12117188 1.85367188 6.18359375 2.80859375 C6.30927734 4.60490234 6.30927734 4.60490234 6.4375 6.4375 C6.51871094 7.63246094 6.59992188 8.82742187 6.68359375 10.05859375 C6.67656114 12.88570244 6.67656114 12.88570244 8 14 C10.18292774 14.23481693 12.37203174 14.41363323 14.5625 14.5625 C15.76003906 14.64628906 16.95757812 14.73007813 18.19140625 14.81640625 C19.11824219 14.87699219 20.04507813 14.93757812 21 15 C21 16.98 21 18.96 21 21 C20.07316406 21.06058594 19.14632812 21.12117188 18.19140625 21.18359375 C16.39509766 21.30927734 16.39509766 21.30927734 14.5625 21.4375 C13.36753906 21.51871094 12.17257813 21.59992188 10.94140625 21.68359375 C8.11429756 21.67656114 8.11429756 21.67656114 7 23 C6.76518307 25.18292774 6.58636677 27.37203174 6.4375 29.5625 C6.35371094 30.76003906 6.26992187 31.95757812 6.18359375 33.19140625 C6.09271484 34.58166016 6.09271484 34.58166016 6 36 C3.69 36 1.38 36 -1 36 C-1.06058594 35.07316406 -1.12117187 34.14632812 -1.18359375 33.19140625 C-1.26738281 31.99386719 -1.35117188 30.79632813 -1.4375 29.5625 C-1.51871094 28.36753906 -1.59992188 27.17257813 -1.68359375 25.94140625 C-1.67656114 23.11429756 -1.67656114 23.11429756 -3 22 C-5.01594582 21.76572222 -7.038474 21.58663876 -9.0625 21.4375 C-10.16722656 21.35371094 -11.27195313 21.26992187 -12.41015625 21.18359375 C-13.26480469 21.12300781 -14.11945313 21.06242187 -15 21 C-15 19.02 -15 17.04 -15 15 C-13.73542969 14.92652344 -13.73542969 14.92652344 -12.4453125 14.8515625 C-11.34960938 14.77679688 -10.25390625 14.70203125 -9.125 14.625 C-7.48917969 14.52058594 -7.48917969 14.52058594 -5.8203125 14.4140625 C-2.86953526 14.26746509 -2.86953526 14.26746509 -1 12 C-0.53603307 9.10776497 -0.53603307 9.10776497 -0.375 5.875 C-0.30023438 4.77929688 -0.22546875 3.68359375 -0.1484375 2.5546875 C-0.09945312 1.71164063 -0.05046875 0.86859375 0 0 Z "
     fill="#F8FCFE"
     transform="translate(172,136)"
     id="path13" />
  <path
     style="fill:url(#linearGradient15);fill-opacity:1;stroke-width:7.55906;stroke-linecap:round;stroke-linejoin:round;stroke-miterlimit:4.2;paint-order:markers fill stroke"
     d="m 257.97278,183.9705 -10.05627,1.06478"
     id="path14" />
  <path
     style="fill:#16afdd;fill-opacity:1;stroke-width:7.55906;stroke-linecap:round;stroke-linejoin:round;stroke-miterlimit:4.2;paint-order:markers fill stroke"
     d="m 287.49088,295.0035 c 0,0 0.29577,-4.14082 0,0 z"
     id="path15" />
  <path
     style="fill:#16afdd;fill-opacity:1;stroke-width:7.55906;stroke-linecap:round;stroke-linejoin:round;stroke-miterlimit:4.2;paint-order:markers fill stroke"
     id="path1"
     sodipodi:type="arc"
     sodipodi:cx="257.49652"
     sodipodi:cy="215.66798"
     sodipodi:rx="32.124325"
     sodipodi:ry="32.45895"
     sodipodi:start="0"
     sodipodi:end="6.2298896"
     sodipodi:open="true"
     sodipodi:arc-type="arc"
     d="m 289.62085,215.66798 a 32.124325,32.45895 0 0 1 -31.69632,32.45607 32.124325,32.45895 0 0 1 -32.54093,-31.59121 32.124325,32.45895 0 0 1 30.8292,-33.29788 32.124325,32.45895 0 0 1 33.36243,30.70392" />
  <path
     style="fill:#fcfefe;fill-opacity:1;stroke:none;stroke-width:7.55906;stroke-linecap:round;stroke-linejoin:round;stroke-miterlimit:4.2;stroke-opacity:1;paint-order:markers fill stroke"
     id="path9"
     sodipodi:type="arc"
     sodipodi:cx="257.32922"
     sodipodi:cy="215.50067"
     sodipodi:rx="25.264444"
     sodipodi:ry="26.26833"
     sodipodi:start="0"
     sodipodi:end="6.2298896"
     sodipodi:open="true"
     sodipodi:arc-type="arc"
     d="m 282.59367,215.50067 a 25.264444,26.26833 0 0 1 -24.92783,26.266 25.264444,26.26833 0 0 1 -25.59209,-25.56609 25.264444,26.26833 0 0 1 24.24588,-26.94726 25.264444,26.26833 0 0 1 26.23817,24.84802" />
</svg>
