<?xml version="1.0" encoding="UTF-8" standalone="no"?>
<svg
   version="1.1"
   width="359"
   height="365"
   id="svg11"
   sodipodi:docname="usuario.svg"
   inkscape:version="1.4-rc1 (61ec3f2, 2024-09-26)"
   xmlns:inkscape="http://www.inkscape.org/namespaces/inkscape"
   xmlns:sodipodi="http://sodipodi.sourceforge.net/DTD/sodipodi-0.dtd"
   xmlns="http://www.w3.org/2000/svg"
   xmlns:svg="http://www.w3.org/2000/svg">
  <defs
     id="defs11" />
  <sodipodi:namedview
     id="namedview11"
     pagecolor="#505050"
     bordercolor="#ffffff"
     borderopacity="1"
     inkscape:showpageshadow="0"
     inkscape:pageopacity="0"
     inkscape:pagecheckerboard="1"
     inkscape:deskcolor="#505050"
     showgrid="false"
     inkscape:zoom="4.5041096"
     inkscape:cx="192.37987"
     inkscape:cy="194.48905"
     inkscape:window-width="1920"
     inkscape:window-height="1017"
     inkscape:window-x="-8"
     inkscape:window-y="-8"
     inkscape:window-maximized="1"
     inkscape:current-layer="svg11" />
  <path
     d="M0 0 C2.80181659 0.0106921 5.60298838 0.00007361 8.40478516 -0.01269531 C20.94559348 -0.02402741 33.25150255 0.26118555 45.06494141 4.94824219 C46.07041016 5.33798218 46.07041016 5.33798218 47.09619141 5.7355957 C56.61106338 9.57139239 64.50189355 15.24894349 71.93994141 22.26074219 C71.21806641 22.75574219 70.49619141 23.25074219 69.75244141 23.76074219 C64.37382124 28.5417379 61.72468622 33.01801728 61.23291016 40.29199219 C61.17375916 42.4477174 61.13904939 44.60423685 61.12744141 46.76074219 C61.10230469 47.86933594 61.07716797 48.97792969 61.05126953 50.12011719 C60.99278032 52.83401644 60.9562203 55.5463169 60.93994141 58.26074219 C60.05951172 58.27492187 59.17908203 58.28910156 58.27197266 58.30371094 C57.11052734 58.35140625 55.94908203 58.39910156 54.75244141 58.44824219 C53.02960938 58.50044922 53.02960938 58.50044922 51.27197266 58.55371094 C47.18852478 59.10393991 47.18852478 59.10393991 42.93994141 64.26074219 C42.60994141 76.14074219 42.27994141 88.02074219 41.93994141 100.26074219 C11.57994141 100.26074219 -18.78005859 100.26074219 -50.06005859 100.26074219 C-50.55505859 79.47074219 -50.55505859 79.47074219 -51.06005859 58.26074219 C-52.71005859 57.93074219 -54.36005859 57.60074219 -56.06005859 57.26074219 C-58.23788541 59.438569 -57.32095776 64.51177297 -57.37646484 67.54589844 C-57.39724594 68.47671738 -57.41802704 69.40753632 -57.43943787 70.36656189 C-57.5050379 73.35204401 -57.56386661 76.33761702 -57.62255859 79.32324219 C-57.66573389 81.34213195 -57.70934784 83.36101238 -57.75341797 85.37988281 C-57.86155878 90.34007732 -57.96055409 95.3003367 -58.06005859 100.26074219 C-68.29005859 100.26074219 -78.52005859 100.26074219 -89.06005859 100.26074219 C-89.6327012 69.48120232 -86.87053115 45.85033595 -64.99755859 22.69824219 C-46.60398178 4.95620896 -24.9400905 -0.11314646 0 0 Z "
     fill="#FDFDFD"
     transform="translate(169.06005859375,175.7392578125)"
     id="path2" />
  <path
     d="M 0,0 C 3.1265831,0.01608375 6.2518739,7.813e-5 9.378418,-0.01904297 36.682778,-0.04831986 59.305012,7.8474385 79.632324,26.391113 l 2,2 c 2.098676,0.271754 2.098676,0.271754 4.507813,0.203125 l 2.742187,0.03516 c 1.89323,0.0077 3.786591,2.92e-4 5.679688,-0.02344 6.985128,0.128258 11.097168,1.837723 16.070308,6.785156 3.66948,4.42868 5.13079,8.373804 5.09766,14.105469 l -0.01,2.978516 -0.0254,3.103515 -0.0137,3.138672 c -0.0118,2.558001 -0.0282,5.115886 -0.0488,7.673828 l 2.41407,-0.175781 c 9.73426,-0.414476 9.73426,-0.414476 13.27343,2.550781 2.82288,3.204348 3.43502,4.597977 3.48951,8.732422 l 0.0389,2.571167 0.0224,2.790161 0.0245,2.879029 c 0.0138,2.017518 0.0246,4.035061 0.0324,6.052612 0.0171,3.059711 0.061,6.118313 0.10522,9.177735 0.0101,1.96353 0.0186,3.92707 0.0254,5.89062 l 0.0531,2.74109 c -0.0319,9.53761 -3.14842,17.18886 -9.68587,24.10266 -7.42527,6.98849 -14.69192,8.00917 -24.45703,8.09375 l -3.116545,0.0345 c -2.173512,0.0189 -4.34708,0.0319 -6.52066,0.0397 -3.292545,0.0194 -6.582556,0.0814 -9.874512,0.14453 -12.23339,0.12307 -22.196957,0.16281 -31.785156,-8.37011 -4.362894,-4.44318 -8.039063,-10.96727 -8.039063,-17.25489 l -2.115582,0.008 c -16.975169,0.0662 -33.9503058,0.11588 -50.925576,0.14706 -8.209065,0.0155 -16.418044,0.0366 -24.627055,0.0709 -7.15368,0.0299 -14.307298,0.0493 -21.461039,0.0559 -3.789049,0.004 -7.57792,0.0131 -11.366912,0.0349 -3.564705,0.0203 -7.129159,0.0267 -10.693916,0.0221 -1.93534,0.001 -3.870653,0.0174 -5.805922,0.0339 l -3.480148,-0.0125 -3.030744,0.008 c -2.493106,-0.36915 -2.493106,-0.36915 -4.313093,-1.68646 -1.931096,-2.75372 -1.627274,-5.79031 -1.613607,-9.03425 l -0.01588,-2.21908 c -0.0064,-1.55847 -0.0051,-3.11699 0.0034,-4.675449 0.0083,-2.322569 -0.01995,-4.64253 -0.052,-6.964844 -0.115133,-24.559508 8.514469,-47.774615 25.498047,-65.789063 C -51.803883,6.4251446 -28.028174,-0.1714127 0,0 Z m -37.367676,13.078613 -2.062988,0.791748 c -10.525477,4.197528 -18.893453,10.611477 -26.937012,18.520752 l -2.121094,2.082032 c -15.702301,16.498129 -21.505414,38.005854 -21.066406,60.292968 l 0.1875,13.624997 h 31 l 1,-41.999997 5,-1 c 3.70759,9.480096 1.658458,28.655237 2,42.999997 h 92 l 1,-35.999997 c 1.62865,-4.625912 4.015359,-5.791514 11.8125,-5.8125 l 3.519531,-0.144531 2.667969,-0.04297 0.01245,-2.076172 c 0.03315,-3.142118 0.103818,-6.282351 0.175049,-9.423828 l 0.01758,-3.265625 c -0.474331,-7.431418 1.16356,-11.860374 5.794922,-17.234375 2.8125,-2.5 2.8125,-2.5 5,-4 -8.156221,-7.762201 -16.347488,-13.162124 -26.8125,-17.25 L 42.956299,12.394531 C 30.838431,7.9025228 18.048382,8.0723241 5.3115234,8.1303711 2.5054782,8.1411203 -0.29993079,8.130406 -3.105957,8.1176758 -15.079168,8.1068639 -26.088029,8.7210284 -37.367676,13.078613 Z"
     fill="#1aafde"
     transform="translate(169.36768,167.60889)"
     id="path3"
     sodipodi:nodetypes="ccccccccccccccccccccccccccccccccscccccccccccccccccccccccccccccccccccccc" />
  <path
     d="M0 0 C0.93199219 0.30679688 1.86398438 0.61359375 2.82421875 0.9296875 C15.91920963 5.79210409 25.51777118 14.55697105 31.5 27.16015625 C37.09160514 40.23371031 38.07277919 53.48441395 33.26953125 67.0625 C26.99872585 81.57217896 17.05273149 91.62571037 2.3125 97.5 C-11.29529298 102.51519304 -24.97558153 100.73875107 -38.0625 94.875 C-51.12594747 87.94929928 -60.33281614 76.21510739 -64.89453125 62.32421875 C-68.46798103 49.76153216 -66.40997009 36.56859474 -60.4921875 25.0703125 C-52.88995793 12.30563866 -41.36650932 2.24475727 -26.765625 -1.5703125 C-17.9417 -2.9412613 -8.51965841 -2.83491261 0 0 Z "
     fill="#FBFCFD"
     transform="translate(188,61)"
     id="path4" />
  <path
     d="M0 0 C9.89189376 -0.02312428 19.78378114 -0.04091552 29.67569637 -0.05181217 C34.2684264 -0.05704082 38.861138 -0.06413812 43.45385742 -0.07543945 C47.88233688 -0.086269 52.31079856 -0.09227698 56.73929024 -0.09487724 C58.43265628 -0.09673137 60.12602129 -0.10035175 61.81937981 -0.10573006 C64.18291232 -0.1129414 66.54637045 -0.1139909 68.90991211 -0.11352539 C69.61697296 -0.11712067 70.32403381 -0.12071594 71.05252075 -0.12442017 C75.88594784 -0.11405216 75.88594784 -0.11405216 77 1 C77.13861464 3.84016616 77.21324216 6.65414845 77.23828125 9.49609375 C77.246353 10.35880386 77.25442474 11.22151398 77.26274109 12.11036682 C77.27660801 13.94554625 77.28731843 15.78075176 77.29516602 17.6159668 C77.31223821 20.39488669 77.35608156 23.17257268 77.40039062 25.95117188 C77.57764695 45.91596182 77.57764695 45.91596182 71.27856445 52.91186523 C65.0449107 58.89886032 58.15041939 59.32319098 49.88671875 59.37109375 C48.91773148 59.38012222 47.9487442 59.3891507 46.95039368 59.39845276 C44.90551831 59.41292085 42.86059702 59.42183341 40.81567383 59.42553711 C37.70769187 59.43742278 34.6017036 59.48663394 31.49414062 59.53710938 C29.50000961 59.54657619 27.5058665 59.55380999 25.51171875 59.55859375 C24.59267258 59.57812607 23.6736264 59.59765839 22.72673035 59.61778259 C14.92293546 59.56393994 9.10498358 57.10498358 3.5625 51.5625 C-0.14293656 45.48558405 -0.27369493 39.91471907 -0.1953125 33.0078125 C-0.1924826 32.06187225 -0.18965271 31.11593201 -0.18673706 30.1413269 C-0.17558932 27.13575306 -0.15049465 24.13048298 -0.125 21.125 C-0.11496321 19.08073349 -0.10583859 17.03646228 -0.09765625 14.9921875 C-0.07566767 9.99467556 -0.04117509 4.9973892 0 0 Z "
     fill="#FAFDFE"
     transform="translate(219,242)"
     id="path5" />
  <path
     d="M 0,0 C 3.1265831,0.01608375 6.2518739,7.813e-5 9.378418,-0.01904297 36.165786,-0.71364537 62.898101,8.6790907 81.463985,28.222774 l -5.993613,1.168339 c -3.397099,0.828391 -1.396642,0.615303 -4.838048,1 -2.340534,-1.432267 -4.030641,-3.093141 -5.96875,-5.03125 C 59.08292,19.950921 51.967763,16.92857 44.819824,14.141113 L 42.956543,13.394775 C 30.839065,8.9019349 18.048202,9.0723249 5.3115234,9.1303711 2.5054782,9.1411203 -0.29993079,9.130406 -3.105957,9.1176758 -15.079168,9.1068639 -26.088029,9.7210284 -37.367676,14.078613 l -2.062988,0.791748 c -10.525482,4.19753 -18.890888,10.612878 -26.937012,18.520752 l -1.898437,1.859375 c -15.317542,16.218574 -20.400209,37.858128 -20.789063,59.515625 l -0.3125,13.624997 h 31 l -0.07031,-9.117184 c -0.01559,-2.905758 -0.02774,-5.81151 -0.03955,-8.717285 -0.01007,-2.023459 -0.02373,-4.046903 -0.04102,-6.070313 -0.02419,-2.904171 -0.03559,-5.808149 -0.04443,-8.712402 l -0.03128,-2.752655 -4.58e-4,-2.547638 -0.01346,-2.247528 c 0.240509,-1.834992 0.240509,-1.834992 2.240509,-3.834992 4.555556,0.555556 4.555556,0.555556 6,2 v 41.999997 h 92 v 8 c -17.680361,0.07 -35.3606872,0.12296 -53.041158,0.15544 -8.209065,0.0155 -16.418044,0.0366 -24.627055,0.0709 -7.15368,0.0299 -14.307298,0.0493 -21.461039,0.0559 -3.789049,0.004 -7.57792,0.0131 -11.366912,0.0349 -3.564705,0.0203 -7.129159,0.0267 -10.693916,0.0221 -1.93534,0.001 -3.870653,0.0174 -5.805922,0.0339 l -3.480148,-0.0125 -3.030744,0.008 c -2.493106,-0.36915 -2.493106,-0.36915 -4.313093,-1.68646 -1.931096,-2.75372 -1.627274,-5.79031 -1.613607,-9.03425 l -0.01588,-2.21908 c -0.0064,-1.55847 -0.0051,-3.11699 0.0034,-4.67545 0.0083,-2.322569 -0.01995,-4.64253 -0.052,-6.964844 -0.115133,-24.559508 8.514469,-47.774615 25.498047,-65.789063 C -51.803883,6.4251446 -28.028174,-0.1714127 0,0 Z"
     fill="#203460"
     transform="translate(169.36768,167.60889)"
     id="path6"
     sodipodi:nodetypes="ccccccccccccccccccccccccccccccsccccccccccccc" />
  <path
     d="M0 0 C0.93199219 0.30679688 1.86398438 0.61359375 2.82421875 0.9296875 C15.91920963 5.79210409 25.51777118 14.55697105 31.5 27.16015625 C37.09160514 40.23371031 38.07277919 53.48441395 33.26953125 67.0625 C26.99872585 81.57217896 17.05273149 91.62571037 2.3125 97.5 C-11.29529298 102.51519304 -24.97558153 100.73875107 -38.0625 94.875 C-51.12594747 87.94929928 -60.33281614 76.21510739 -64.89453125 62.32421875 C-68.46798103 49.76153216 -66.40997009 36.56859474 -60.4921875 25.0703125 C-52.88995793 12.30563866 -41.36650932 2.24475727 -26.765625 -1.5703125 C-17.9417 -2.9412613 -8.51965841 -2.83491261 0 0 Z M-47.25 20.25 C-55.20098195 29.65813402 -58.5835399 39.98265586 -58.375 52.234375 C-57.15927651 64.44226506 -51.51565674 74.02423513 -42.6875 82.25 C-33.09349588 89.9940392 -22.15508753 93.02239054 -10 92 C2.00936012 90.15121106 12.53345885 84.7651251 20 75 C26.84036292 63.53311254 30.39938545 51.42018826 27.31640625 38.03125 C25.17439518 31.70298493 22.10629493 26.25525823 18 21 C17.52175781 20.38382813 17.04351562 19.76765625 16.55078125 19.1328125 C8.99557689 10.56897884 -2.04564682 6.60350192 -13.140625 5.76171875 C-26.85245591 5.4344263 -37.84115868 10.27838686 -47.25 20.25 Z "
     fill="#203460"
     transform="translate(188,61)"
     id="path7" />
  <path
     d="M0 0 C1.08539063 -0.02900391 2.17078125 -0.05800781 3.2890625 -0.08789062 C9.56856431 -0.13778887 13.53001742 -0.0141507 18.25 4.3125 C19.52861615 6.86973229 19.36336609 8.67987102 19.34765625 11.5390625 C19.34515869 12.46799316 19.34266113 13.39692383 19.34008789 14.35400391 C19.33098389 15.53655762 19.32187988 16.71911133 19.3125 17.9375 C19.291875 21.69125 19.27125 25.445 19.25 29.3125 C6.71 29.3125 -5.83 29.3125 -18.75 29.3125 C-18.853125 25.80625 -18.95625 22.3 -19.0625 18.6875 C-19.10802002 17.59356934 -19.15354004 16.49963867 -19.20043945 15.37255859 C-19.3151981 7.30095358 -19.3151981 7.30095358 -16.35546875 3.6640625 C-11.36752078 -0.83780358 -6.46812858 0.05680441 0 0 Z "
     fill="#FEFEFE"
     transform="translate(256.75,204.6875)"
     id="path8" />
  <path
     d="M0 0 C2.475 0.495 2.475 0.495 5 1 C5.7578125 3.140625 5.7578125 3.140625 6 6 C4.3671875 8.734375 4.3671875 8.734375 1.875 11.75 C0.95210038 12.88979612 0.0302824 14.03046865 -0.890625 15.171875 C-1.39013672 15.78224609 -1.88964844 16.39261719 -2.40429688 17.02148438 C-5.30664023 20.62010594 -8.08074354 24.31727657 -10.875 28 C-12.4545827 30.07352235 -14.03511915 32.14492725 -15.63964844 34.19921875 C-16.82114652 35.76324063 -17.89433367 37.40794699 -18.9453125 39.0625 C-21 41 -21 41 -24.28515625 41.12890625 C-28.74763721 39.77280005 -31.77655215 37.75391173 -35.4375 34.9375 C-36.07365234 34.46505859 -36.70980469 33.99261719 -37.36523438 33.50585938 C-38.91913079 32.34919964 -40.46086558 31.17623172 -42 30 C-41.67 28.35 -41.34 26.7 -41 25 C-37.61520953 23.86761123 -36.36518683 23.81913149 -33.10546875 25.43359375 C-32.14253906 26.09488281 -31.17960938 26.75617188 -30.1875 27.4375 C-28.72376953 28.42556641 -28.72376953 28.42556641 -27.23046875 29.43359375 C-26.12638672 30.20896484 -26.12638672 30.20896484 -25 31 C-20.87252876 27.0988983 -17.53687965 22.88948033 -14.1875 18.3125 C-9.58642759 12.09606656 -4.89508011 5.98927448 0 0 Z "
     fill="#1AAFDE"
     transform="translate(275,251)"
     id="path10" />
</svg>
